<svg width="700" height="395" viewBox="0 0 700 395" fill="none" xmlns="http://www.w3.org/2000/svg">
<g clip-path="url(#clip0_12_296)">
<path d="M52.6656 394.137L51.9289 392.774C61.8064 387.432 74.0996 380.784 80.5204 369.874C86.8499 359.119 86.9919 344.515 80.891 331.76C75.699 320.905 66.1617 311.18 53.3102 303.636C50.7752 302.148 48.1142 300.738 45.5407 299.374C39.3203 296.077 32.8882 292.668 27.5844 287.831C20.2796 281.17 14.7526 269.991 18.8721 260.034C20.2269 256.855 22.4457 254.121 25.2765 252.14C28.1073 250.159 31.4368 249.012 34.8868 248.829L34.9742 250.375C31.8135 250.543 28.7632 251.593 26.1692 253.407C23.5753 255.221 21.5416 257.725 20.2991 260.636C16.471 269.889 21.7231 280.39 28.6282 286.687C33.7869 291.391 40.131 294.753 46.2661 298.005C48.8541 299.377 51.5305 300.795 54.0945 302.3C67.2134 310.001 76.9627 319.957 82.2884 331.092C88.6086 344.305 88.4428 359.467 81.8554 370.66C75.2157 381.942 62.7123 388.704 52.6656 394.137Z" fill="#F1F1F1"/>
<path d="M44.7042 256.993C52.1897 256.993 58.2579 254.045 58.2579 250.41C58.2579 246.774 52.1897 243.826 44.7042 243.826C37.2186 243.826 31.1504 246.774 31.1504 250.41C31.1504 254.045 37.2186 256.993 44.7042 256.993Z" fill="#F1F1F1"/>
<path d="M55.5472 300.365C63.0327 300.365 69.101 297.417 69.101 293.782C69.101 290.146 63.0327 287.198 55.5472 287.198C48.0616 287.198 41.9934 290.146 41.9934 293.782C41.9934 297.417 48.0616 300.365 55.5472 300.365Z" fill="#F1F1F1"/>
<path d="M30.7633 307.335C38.2488 307.335 44.317 304.388 44.317 300.752C44.317 297.116 38.2488 294.169 30.7633 294.169C23.2777 294.169 17.2095 297.116 17.2095 300.752C17.2095 304.388 23.2777 307.335 30.7633 307.335Z" fill="#F1F1F1"/>
<path d="M69.4881 343.737C76.9736 343.737 83.0419 340.79 83.0419 337.154C83.0419 333.518 76.9736 330.57 69.4881 330.57C62.0026 330.57 55.9343 333.518 55.9343 337.154C55.9343 340.79 62.0026 343.737 69.4881 343.737Z" fill="#F1F1F1"/>
<path d="M96.5958 343.737C104.081 343.737 110.15 340.79 110.15 337.154C110.15 333.518 104.081 330.57 96.5958 330.57C89.1102 330.57 83.042 333.518 83.042 337.154C83.042 340.79 89.1102 343.737 96.5958 343.737Z" fill="#F1F1F1"/>
<path d="M700 11.9501H264.114V218.786H700V11.9501Z" fill="#E6E6E6"/>
<path d="M687.536 29.6866H276.578V202.256H687.536V29.6866Z" fill="white"/>
<path d="M699.814 0H263.928V18.5177H699.814V0Z" fill="#BABAD4"/>
<path d="M277.689 11.9974C279.584 11.9974 281.121 10.4608 281.121 8.56525C281.121 6.6697 279.584 5.13306 277.689 5.13306C275.793 5.13306 274.257 6.6697 274.257 8.56525C274.257 10.4608 275.793 11.9974 277.689 11.9974Z" fill="white"/>
<path d="M290.716 11.9974C292.612 11.9974 294.149 10.4608 294.149 8.56525C294.149 6.6697 292.612 5.13306 290.716 5.13306C288.821 5.13306 287.284 6.6697 287.284 8.56525C287.284 10.4608 288.821 11.9974 290.716 11.9974Z" fill="white"/>
<path d="M303.744 11.9974C305.64 11.9974 307.177 10.4608 307.177 8.56525C307.177 6.6697 305.64 5.13306 303.744 5.13306C301.849 5.13306 300.312 6.6697 300.312 8.56525C300.312 10.4608 301.849 11.9974 303.744 11.9974Z" fill="white"/>
<path d="M460.389 70.6406C459.948 70.6406 459.525 70.8158 459.213 71.1276C458.901 71.4395 458.726 71.8624 458.726 72.3034C458.726 72.7444 458.901 73.1673 459.213 73.4791C459.525 73.791 459.948 73.9662 460.389 73.9662H551.628C552.069 73.9662 552.492 73.791 552.804 73.4791C553.116 73.1673 553.291 72.7444 553.291 72.3034C553.291 71.8624 553.116 71.4395 552.804 71.1276C552.492 70.8158 552.069 70.6406 551.628 70.6406H460.389Z" fill="#E6E6E6"/>
<path d="M460.389 80.6182C459.948 80.6191 459.526 80.7947 459.215 81.1064C458.904 81.4182 458.729 81.8406 458.729 82.2809C458.729 82.7213 458.904 83.1437 459.215 83.4554C459.526 83.7671 459.948 83.9427 460.389 83.9437H506.968C507.409 83.9427 507.831 83.7671 508.142 83.4554C508.453 83.1437 508.627 82.7213 508.627 82.2809C508.627 81.8406 508.453 81.4182 508.142 81.1064C507.831 80.7947 507.409 80.6191 506.968 80.6182H460.389Z" fill="#E6E6E6"/>
<path d="M458.093 128.911C457.652 128.911 457.229 129.086 456.917 129.398C456.605 129.71 456.43 130.133 456.43 130.574C456.43 131.015 456.605 131.438 456.917 131.749C457.229 132.061 457.652 132.236 458.093 132.236H629.167C629.608 132.236 630.031 132.061 630.343 131.749C630.655 131.438 630.83 131.015 630.83 130.574C630.83 130.133 630.655 129.71 630.343 129.398C630.031 129.086 629.608 128.911 629.167 128.911H458.093Z" fill="#E6E6E6"/>
<path d="M458.093 138.888C457.652 138.889 457.23 139.065 456.919 139.377C456.608 139.688 456.434 140.111 456.434 140.551C456.434 140.992 456.608 141.414 456.919 141.726C457.23 142.037 457.652 142.213 458.093 142.214H584.507C584.948 142.213 585.37 142.037 585.681 141.726C585.992 141.414 586.166 140.992 586.166 140.551C586.166 140.111 585.992 139.688 585.681 139.377C585.37 139.065 584.948 138.889 584.507 138.888H458.093Z" fill="#E6E6E6"/>
<path d="M458.093 148.64C457.652 148.641 457.23 148.817 456.919 149.129C456.608 149.44 456.434 149.863 456.434 150.303C456.434 150.743 456.608 151.166 456.919 151.478C457.23 151.789 457.652 151.965 458.093 151.966H629.167C629.607 151.965 630.029 151.789 630.34 151.478C630.651 151.166 630.826 150.743 630.826 150.303C630.826 149.863 630.651 149.44 630.34 149.129C630.029 148.817 629.607 148.641 629.167 148.64H458.093Z" fill="#E6E6E6"/>
<path d="M458.093 158.618C457.652 158.619 457.23 158.794 456.919 159.106C456.608 159.418 456.434 159.84 456.434 160.281C456.434 160.721 456.608 161.143 456.919 161.455C457.23 161.767 457.652 161.942 458.093 161.943H584.507C584.948 161.942 585.37 161.767 585.681 161.455C585.992 161.143 586.166 160.721 586.166 160.281C586.166 159.84 585.992 159.418 585.681 159.106C585.37 158.794 584.948 158.619 584.507 158.618H458.093Z" fill="#E6E6E6"/>
<path d="M368.654 135.659C376.65 135.659 383.133 129.177 383.133 121.18C383.133 113.184 376.65 106.702 368.654 106.702C360.658 106.702 354.175 113.184 354.175 121.18C354.175 129.177 360.658 135.659 368.654 135.659Z" fill="#A0616A"/>
<path d="M364.069 109.597C364.069 109.597 370.826 111.407 374.325 112.131C377.824 112.855 377.462 110.804 377.462 110.804C377.462 110.804 382.047 111.407 381.806 110.925C381.564 110.442 383.736 107.908 381.202 105.012C378.669 102.117 379.393 99.9448 379.393 99.9448H377.221L376.617 99.1002H373.239C373.239 99.1002 369.504 95.8249 362.868 96.7902C356.232 97.7554 348.384 100.307 347.66 104.288C347.562 104.828 347.432 105.428 347.282 106.062C345.468 113.723 349.323 120.891 353.322 127.673C354.305 129.339 359.059 132.974 358.937 130.48C358.816 127.987 354.658 122.387 357.554 122.025C360.45 121.663 365.396 114.303 364.069 109.597Z" fill="#2F2E41"/>
<path d="M360.441 167.988C357.645 167.764 354.874 167.309 352.154 166.626L352.307 163.739L353.574 140.781L353.586 140.605H379.09L383.093 161.743L383.633 164.595C382.577 165.006 381.508 165.394 380.417 165.734C380.405 165.734 380.405 165.746 380.394 165.746C378.88 166.215 377.342 166.626 375.792 166.966C373.732 167.411 371.647 167.732 369.548 167.929C367.926 168.09 366.296 168.168 364.666 168.164C363.257 168.164 361.837 168.105 360.441 167.988Z" fill="#BABAD4"/>
<path d="M344.044 163.903C342.987 163.445 341.966 162.952 340.957 162.436L340.522 162.213C340.229 162.06 339.924 161.896 339.631 161.732C339.231 161.509 338.844 161.286 338.468 161.063C338.104 160.851 337.729 160.628 337.365 160.405C337.342 160.394 337.33 160.382 337.307 160.382C336.039 159.572 334.795 158.739 333.598 157.835C333.398 157.682 333.199 157.53 332.999 157.377L332.788 153.997L333.093 153.809L353.574 140.781L353.856 140.605L353.879 140.593L356.766 140.605V151.356C358.398 153.715 359.501 158.656 360.182 165.124C360.276 166.051 360.358 167.002 360.441 167.987C357.646 167.764 354.874 167.308 352.154 166.626C351.861 166.567 351.579 166.497 351.285 166.415C349.575 165.967 347.89 165.426 346.239 164.795C345.734 164.607 345.241 164.408 344.748 164.208L344.701 164.185C344.489 164.091 344.255 163.997 344.044 163.903Z" fill="#2F2E41"/>
<path d="M339.631 161.732C339.231 161.509 338.844 161.286 338.469 161.063C338.105 160.851 337.729 160.628 337.365 160.405C337.342 160.394 337.33 160.382 337.307 160.382C336.039 159.572 334.795 158.739 333.598 157.835C333.398 157.682 333.199 157.53 332.999 157.377C332.905 157.295 332.811 157.225 332.705 157.142C331.955 156.567 331.227 155.969 330.522 155.335C330.488 155.312 330.464 155.276 330.428 155.253C331.14 154.706 331.937 154.282 332.788 153.997L333.621 154.243L339.56 156.027L339.595 158.434L339.631 161.732Z" fill="#2F2E41"/>
<path d="M389.643 161.767C389.29 161.955 388.938 162.143 388.586 162.319C388.504 162.366 388.434 162.401 388.363 162.436C387.893 162.671 387.436 162.905 386.967 163.128C386.955 163.14 386.931 163.14 386.931 163.152C386.908 163.164 386.873 163.175 386.849 163.187C385.793 163.692 384.725 164.161 383.633 164.596C382.577 165.006 381.508 165.394 380.417 165.734C380.405 165.734 380.405 165.746 380.394 165.746C378.88 166.215 377.342 166.626 375.792 166.966C375.775 166.002 375.902 165.041 376.168 164.114L376.18 163.95L377.19 147.612L375.839 140.605L379.713 140.03L401.016 151.497C401.016 151.497 398.668 153.844 389.032 158.844C388.18 159.286 389.431 160.758 389.643 161.767Z" fill="#2F2E41"/>
<path d="M369.29 165.112C367.764 165.253 366.215 165.323 364.666 165.323C363.163 165.323 361.673 165.264 360.182 165.124C360.276 166.051 360.358 167.002 360.441 167.988C361.837 168.105 363.257 168.164 364.666 168.164C366.296 168.168 367.926 168.09 369.548 167.929C371.647 167.732 373.732 167.411 375.792 166.966C375.775 166.002 375.902 165.041 376.168 164.114L376.18 163.95C373.914 164.501 371.612 164.89 369.29 165.112ZM413.645 99.2431C411.164 92.1185 407.16 85.6207 401.91 80.2027C396.661 74.7848 390.293 70.5771 383.25 67.8731C376.208 65.169 368.66 64.0338 361.133 64.5464C353.607 65.0591 346.283 67.2073 339.672 70.8413C333.061 74.4753 327.322 79.5077 322.856 85.5874C318.389 91.6672 315.303 98.6479 313.812 106.043C312.321 113.438 312.46 121.069 314.221 128.405C315.983 135.74 319.322 142.604 324.008 148.516C324.478 149.102 324.959 149.689 325.452 150.253C325.499 150.3 325.523 150.335 325.558 150.37C326.769 151.768 328.058 153.096 329.419 154.349C329.748 154.654 330.088 154.959 330.428 155.253C330.464 155.276 330.487 155.311 330.522 155.335C331.227 155.969 331.955 156.567 332.705 157.142C332.811 157.225 332.905 157.295 332.999 157.377C333.199 157.53 333.398 157.682 333.598 157.835C334.795 158.739 336.039 159.572 337.307 160.382C337.33 160.382 337.342 160.394 337.365 160.405C337.729 160.628 338.104 160.851 338.468 161.063C338.844 161.286 339.232 161.509 339.631 161.732C339.924 161.896 340.229 162.06 340.522 162.213L340.957 162.436C341.966 162.952 342.987 163.445 344.043 163.903C344.255 163.997 344.489 164.091 344.701 164.185L344.748 164.208C345.241 164.408 345.734 164.607 346.238 164.795C347.89 165.426 349.575 165.967 351.285 166.415C351.579 166.497 351.861 166.567 352.154 166.626C354.874 167.308 357.646 167.764 360.441 167.988C361.837 168.105 363.257 168.164 364.666 168.164C366.296 168.168 367.926 168.09 369.548 167.929C371.647 167.732 373.732 167.411 375.792 166.966C377.342 166.626 378.88 166.215 380.394 165.746C380.405 165.746 380.405 165.734 380.417 165.734C381.508 165.394 382.577 165.006 383.633 164.595C384.725 164.161 385.793 163.692 386.849 163.187C386.873 163.175 386.908 163.164 386.931 163.152C386.931 163.14 386.955 163.14 386.967 163.128C387.436 162.905 387.893 162.671 388.363 162.436C388.434 162.401 388.504 162.365 388.586 162.318C388.938 162.142 389.29 161.955 389.642 161.767C389.666 161.755 389.677 161.743 389.701 161.732C390.628 161.215 391.544 160.675 392.448 160.1C392.694 159.948 392.941 159.795 393.187 159.619C393.551 159.396 393.903 159.149 394.243 158.903C394.701 158.586 395.159 158.257 395.605 157.917C395.753 157.822 395.894 157.716 396.027 157.6C397.119 156.779 398.175 155.91 399.185 154.994C406.839 148.174 412.299 139.236 414.872 129.312C417.446 119.389 417.019 108.924 413.645 99.2431ZM398.304 151.966C397.034 153.162 395.702 154.29 394.314 155.347C394.009 155.581 393.691 155.816 393.375 156.027C393.07 156.262 392.765 156.485 392.448 156.696C392.178 156.884 391.908 157.072 391.626 157.248C391.602 157.271 391.568 157.283 391.544 157.307C391.344 157.448 391.133 157.577 390.934 157.706C390.311 158.093 389.666 158.48 389.032 158.844C388.88 158.926 388.739 159.02 388.586 159.102C388.504 159.149 388.422 159.196 388.328 159.243C387.976 159.443 387.623 159.619 387.272 159.807C387.225 159.842 387.166 159.854 387.119 159.889C387.101 159.892 387.085 159.9 387.072 159.912C386.826 160.041 386.579 160.159 386.333 160.276C386.121 160.382 385.922 160.487 385.71 160.581C384.854 160.992 383.973 161.379 383.093 161.743C382.166 162.119 381.227 162.459 380.276 162.776C380.041 162.858 379.795 162.952 379.548 163.023C378.433 163.375 377.318 163.692 376.18 163.95C373.914 164.501 371.612 164.89 369.29 165.112C367.764 165.253 366.215 165.323 364.666 165.323C363.163 165.323 361.673 165.264 360.182 165.124C357.523 164.88 354.889 164.417 352.307 163.739C352.213 163.715 352.107 163.692 352.013 163.668C349.895 163.116 347.82 162.41 345.804 161.556C345.699 161.509 345.581 161.473 345.487 161.426C345.37 161.379 345.264 161.344 345.17 161.297C345.053 161.25 344.947 161.203 344.842 161.156C343.962 160.769 343.105 160.347 342.248 159.912L341.849 159.701C341.086 159.302 340.335 158.891 339.595 158.433C339.337 158.293 339.067 158.128 338.809 157.964C338.515 157.788 338.222 157.6 337.94 157.412C337.87 157.365 337.8 157.318 337.729 157.271C337.072 156.825 336.403 156.379 335.769 155.898C335.323 155.57 334.889 155.253 334.454 154.912C334.172 154.701 333.891 154.478 333.621 154.243C333.445 154.114 333.269 153.962 333.093 153.809C332.858 153.61 332.623 153.41 332.389 153.199C332.025 152.905 331.685 152.577 331.356 152.271C330.034 151.054 328.784 149.76 327.612 148.398C327.213 147.952 326.837 147.506 326.473 147.037C326.389 146.944 326.31 146.846 326.238 146.743C320.329 139.284 316.719 130.266 315.848 120.79C314.977 111.313 316.883 101.788 321.333 93.3768C325.783 84.9652 332.585 78.0305 340.909 73.4188C349.233 68.8071 358.719 66.7178 368.211 67.4057C377.702 68.0936 386.788 71.529 394.36 77.2928C401.932 83.0565 407.663 90.8995 410.854 99.8649C414.045 108.83 414.557 118.531 412.328 127.782C410.1 137.034 405.227 145.437 398.304 151.966Z" fill="#3F3D56"/>
<path d="M126.581 384.693L136.077 384.693L140.594 348.068L126.58 348.069L126.581 384.693Z" fill="#A0616A"/>
<path d="M124.16 381.593L142.859 381.592H142.86C146.02 381.593 149.051 382.848 151.286 385.083C153.521 387.318 154.777 390.349 154.777 393.509V393.896L124.16 393.897L124.16 381.593Z" fill="#2F2E41"/>
<path d="M162.209 384.693L171.704 384.693L176.221 348.068L162.207 348.069L162.209 384.693Z" fill="#A0616A"/>
<path d="M159.787 381.593L178.486 381.592H178.487C181.647 381.593 184.678 382.848 186.913 385.083C189.148 387.318 190.404 390.349 190.404 393.509V393.896L159.787 393.897L159.787 381.593Z" fill="#2F2E41"/>
<path d="M97.7704 239.972C98.5475 239.14 99.1328 238.147 99.4848 237.064C99.8369 235.982 99.9473 234.835 99.8083 233.705C99.6692 232.575 99.284 231.489 98.6799 230.524C98.0758 229.559 97.2675 228.738 96.3118 228.119L102.909 201.24L89.3613 206.067L85.1733 230.852C84.2401 232.526 83.9534 234.485 84.3677 236.357C84.782 238.228 85.8684 239.883 87.4212 241.007C88.9739 242.131 90.8851 242.647 92.7925 242.456C94.7 242.265 96.4711 241.381 97.7704 239.972Z" fill="#9E616A"/>
<path d="M198.565 237.648C197.788 236.816 197.203 235.824 196.851 234.741C196.498 233.658 196.388 232.511 196.527 231.381C196.666 230.251 197.051 229.165 197.655 228.2C198.26 227.235 199.068 226.414 200.024 225.795L193.426 198.916L206.974 203.744L211.162 228.528C212.095 230.203 212.382 232.161 211.968 234.033C211.553 235.905 210.467 237.559 208.914 238.683C207.361 239.808 205.45 240.323 203.543 240.132C201.635 239.941 199.864 239.057 198.565 237.648Z" fill="#9E616A"/>
<path d="M110.263 221.13L123.425 375.307L142.682 373.551L150.389 254.394L157.249 301.575L158.623 376.52L176.05 375.358L185.726 294.733L183.352 216.65L117.197 209.95L110.263 221.13Z" fill="#2F2E41"/>
<path d="M146.468 80.8333C157.497 80.8333 166.439 71.8919 166.439 60.8622C166.439 49.8325 157.497 40.8911 146.468 40.8911C135.438 40.8911 126.497 49.8325 126.497 60.8622C126.497 71.8919 135.438 80.8333 146.468 80.8333Z" fill="#A0616A"/>
<path d="M140.143 44.8853C140.143 44.8853 149.463 47.3817 154.29 48.3803C159.116 49.3789 158.617 46.5496 158.617 46.5496C158.617 46.5496 164.941 47.3817 164.608 46.716C164.275 46.0503 167.271 42.5554 163.776 38.5611C160.281 34.5669 161.28 31.5713 161.28 31.5713H158.284L157.452 30.4063H152.792C152.792 30.4063 147.64 25.8886 138.486 27.22C129.333 28.5514 118.508 32.0705 117.509 37.5626C117.374 38.3075 117.196 39.1351 116.989 40.0092C114.486 50.5763 119.804 60.4633 125.32 69.8175C126.675 72.1164 133.233 77.1294 133.065 73.6901C132.897 70.2507 127.162 62.5265 131.156 62.0272C135.151 61.5279 141.974 51.376 140.143 44.8853Z" fill="#2F2E41"/>
<path d="M125.686 87.6554H160.857L185.726 218.992C185.726 218.992 164.045 220.845 151.653 225.492C139.261 230.139 118.66 214.877 118.66 214.877L125.686 87.6554Z" fill="#BABAD4"/>
<path d="M130.077 102.487V87.6554L126.094 87.6311L96.9988 106.13L103.312 207.483C103.312 207.483 110.785 241.297 122.118 240.946C133.452 240.595 142.191 120.053 130.077 102.487Z" fill="#2F2E41"/>
<path d="M106.345 108.93L96.9988 106.13C96.9988 106.13 90.0801 108.155 90.0801 115.126C90.0801 122.096 84.1189 221.13 84.1189 221.13L103.056 222.804L107.119 172.439L106.345 108.93Z" fill="#2F2E41"/>
<path d="M158.236 97.3123L156.373 87.6553L161.721 86.8566L181.084 94.6016C181.084 94.6016 198.51 222.007 190.765 225.88C183.02 229.752 177.791 226.752 177.791 226.752C177.791 226.752 152.316 132.785 156.825 120.083L158.236 97.3123Z" fill="#2F2E41"/>
<path d="M167.53 96.5379L170.835 95.0996C170.835 95.0996 180.534 90.2933 186.037 99.9989C191.54 109.704 210.902 218.135 210.902 218.135L194.971 221.13L183.06 182.108L167.53 96.5379Z" fill="#2F2E41"/>
<path d="M295.86 394.334H0.774502C0.569091 394.334 0.372093 394.252 0.226846 394.107C0.0815985 393.962 0 393.765 0 393.559C0 393.354 0.0815985 393.157 0.226846 393.012C0.372093 392.866 0.569091 392.785 0.774502 392.785H295.86C296.065 392.785 296.262 392.866 296.407 393.012C296.553 393.157 296.634 393.354 296.634 393.559C296.634 393.765 296.553 393.962 296.407 394.107C296.262 394.252 296.065 394.334 295.86 394.334Z" fill="#CACACA"/>
</g>
<defs>
<clipPath id="clip0_12_296">
<rect width="700" height="394.334" fill="white"/>
</clipPath>
</defs>
</svg>
