<svg width="700" height="697" viewBox="0 0 700 697" fill="none" xmlns="http://www.w3.org/2000/svg">
<g clip-path="url(#clip0_12_44)">
<path d="M465.598 696.228H38.2083C28.0783 696.216 18.3665 692.187 11.2035 685.024C4.04058 677.861 0.0114345 668.149 0 658.019V38.2083C0.0114345 28.0783 4.04058 18.3665 11.2035 11.2036C18.3665 4.04062 28.0783 0.0114345 38.2083 0H465.598C475.728 0.0114203 485.44 4.0406 492.603 11.2036C499.766 18.3665 503.795 28.0783 503.806 38.2083V658.019C503.795 668.149 499.766 677.861 492.603 685.024C485.44 692.187 475.728 696.216 465.598 696.228Z" fill="#3F3D56"/>
<path d="M466.35 671.85H37.456C34.3334 671.847 31.3397 670.604 29.1317 668.396C26.9236 666.188 25.6816 663.195 25.678 660.072V36.156C25.6816 33.0334 26.9236 30.0396 29.1317 27.8316C31.3397 25.6235 34.3334 24.3815 37.456 24.3779H466.35C469.473 24.3815 472.467 25.6235 474.675 27.8316C476.883 30.0396 478.125 33.0334 478.128 36.156V660.072C478.125 663.195 476.883 666.188 474.675 668.396C472.467 670.604 469.473 671.847 466.35 671.85Z" fill="white"/>
<path d="M250.278 14.9519C252.073 14.9519 253.528 13.4967 253.528 11.7015C253.528 9.90641 252.073 8.45117 250.278 8.45117C248.483 8.45117 247.028 9.90641 247.028 11.7015C247.028 13.4967 248.483 14.9519 250.278 14.9519Z" fill="white"/>
<path d="M366.307 288.235L352.109 245.711L351.868 244.972L411.661 207.203L414.84 211.486L431.493 233.91L425.406 252.047L409.672 298.906L408.983 300.965L438.119 322.628C439.274 324.758 440.233 326.7 441.013 328.484C449.712 348.304 436.836 347.405 436.836 347.405L377.579 322.005L366.307 288.235Z" fill="#FFB7B7"/>
<path d="M397.677 296.152L395.065 288.323L382.244 249.895L379.574 241.884L377.331 235.181L406.567 216.707L437.124 197.412L456.955 224.119L450.944 242.027L448.023 250.728L443.507 264.187L434.445 291.174L463.582 312.837C465.786 316.703 467.527 320.816 468.767 325.09C469.273 326.874 469.513 328.722 469.48 330.576C469.527 331.525 469.373 332.474 469.027 333.359C468.681 334.244 468.151 335.045 467.472 335.71C466.793 336.375 465.981 336.889 465.089 337.217C464.198 337.545 463.246 337.68 462.298 337.614L403.041 312.214L397.677 296.152Z" fill="#FFB7B7"/>
<path opacity="0.15" d="M394.898 297.886L391.458 261.636L408.595 252.345L409.716 254.414L393.947 262.963L397.135 296.568L432.17 320.561L430.841 322.502L394.898 297.886Z" fill="black"/>
<path opacity="0.15" d="M432.275 296.672L430.878 298.563L466.233 324.686L467.631 322.794L432.275 296.672Z" fill="black"/>
<path d="M430.169 332.204L252.306 207.168L72.6265 331.039L249.626 405.781L430.169 332.204Z" fill="white"/>
<path d="M302.826 226.074L362.719 167.515L469.835 160.278L602.986 287.426L700 340.517L672.669 420.889L555.575 365.306C531.736 363.554 516.396 355.643 506.694 347.324C503.358 344.467 500.351 341.246 497.729 337.722C494.858 333.986 492.618 329.804 491.099 325.344L443.506 264.187L433.694 251.567L427.34 243.4L406.567 216.707L405.072 214.789L369.782 213.854L351.415 237.966L338.515 254.887C338.214 260.846 336.062 266.564 332.358 271.242C320.789 285.314 297.332 282.566 297.332 282.566L302.826 226.074Z" fill="#FFB7B7"/>
<path d="M73.3119 330.924H73.44L146.899 362.291L247.405 405.208C247.798 405.374 248.219 405.46 248.645 405.462C249.071 405.464 249.494 405.382 249.888 405.221L353.581 362.202L428.844 330.975L428.959 330.924H429.087C430.275 330.926 431.413 331.398 432.253 332.238C433.093 333.077 433.565 334.216 433.567 335.403V529.928C433.565 531.116 433.093 532.254 432.253 533.094C431.413 533.934 430.275 534.406 429.087 534.407H73.3119C72.1244 534.406 70.9858 533.934 70.1461 533.094C69.3064 532.254 68.8341 531.116 68.8328 529.928V335.403C68.8341 334.216 69.3064 333.077 70.1461 332.238C70.9858 331.398 72.1244 330.926 73.3119 330.924Z" fill="white"/>
<path d="M72.9925 332.204C73.1231 332.204 73.2506 332.164 73.3578 332.089L250.323 208.845C250.862 208.472 251.502 208.272 252.157 208.274C252.812 208.275 253.452 208.476 253.989 208.851L429.68 332.088C429.819 332.185 429.99 332.223 430.157 332.193C430.324 332.164 430.472 332.069 430.57 331.93C430.667 331.792 430.705 331.62 430.676 331.453C430.647 331.286 430.553 331.138 430.415 331.04L254.724 207.804C253.971 207.278 253.077 206.996 252.159 206.995C251.242 206.993 250.346 207.272 249.592 207.795L72.6264 331.039C72.5146 331.116 72.4306 331.228 72.3866 331.357C72.3426 331.486 72.3409 331.626 72.3817 331.756C72.4226 331.886 72.5039 331.999 72.6137 332.08C72.7236 332.16 72.8563 332.204 72.9925 332.204Z" fill="#3F3D56"/>
<path d="M419.64 336.572L251.983 212.318L83.0547 345.414L243.345 440.437L330.369 420.601L419.64 336.572Z" fill="#E6E6E6"/>
<path d="M323.023 499.128H405.85C406.875 499.128 407.859 498.721 408.585 497.997C409.311 497.272 409.719 496.29 409.721 495.264C409.722 494.238 409.317 493.254 408.593 492.528C407.869 491.801 406.887 491.391 405.861 491.389H323.023C321.998 491.388 321.014 491.795 320.288 492.52C319.562 493.244 319.154 494.227 319.152 495.253C319.151 496.278 319.556 497.262 320.28 497.989C321.004 498.716 321.986 499.125 323.012 499.128H323.023Z" fill="#BABAD4"/>
<path d="M376.134 482.491H405.85C406.876 482.492 407.859 482.085 408.585 481.36C409.311 480.636 409.72 479.653 409.721 478.627C409.723 477.602 409.317 476.618 408.593 475.891C407.87 475.164 406.887 474.755 405.861 474.752H376.134C375.108 474.752 374.124 475.158 373.399 475.883C372.673 476.607 372.264 477.59 372.263 478.616C372.261 479.641 372.667 480.626 373.39 481.352C374.114 482.079 375.097 482.488 376.122 482.491H376.134Z" fill="#BABAD4"/>
<path d="M249.626 405.781C250.255 405.782 250.879 405.659 251.462 405.421L354.861 362.518V228.223C354.86 227.035 354.387 225.897 353.547 225.057C352.708 224.217 351.569 223.745 350.382 223.744H152.018C150.83 223.745 149.692 224.217 148.852 225.057C148.012 225.897 147.54 227.035 147.539 228.223V362.612L147.733 362.695L247.734 405.4C248.333 405.652 248.976 405.781 249.626 405.781Z" fill="white"/>
<path d="M247.608 405.694L147.219 362.822V228.222C147.22 226.95 147.726 225.73 148.626 224.831C149.525 223.931 150.745 223.425 152.018 223.423H350.382C351.654 223.425 352.874 223.931 353.773 224.831C354.673 225.73 355.179 226.95 355.181 228.222V362.731L251.583 405.717C250.307 406.236 248.878 406.227 247.608 405.694ZM353.901 228.222C353.9 227.289 353.529 226.395 352.869 225.735C352.209 225.075 351.315 224.704 350.382 224.703H152.018C151.085 224.704 150.19 225.075 149.53 225.735C148.87 226.395 148.499 227.289 148.498 228.222V361.978L248.108 404.516C249.062 404.917 250.136 404.923 251.095 404.534L353.901 361.876L353.901 228.222Z" fill="#3F3D56"/>
<path d="M69.7927 335.403V529.928C69.794 531.116 70.2664 532.254 71.1061 533.094C71.9458 533.934 73.0844 534.406 74.2719 534.407H430.047C431.235 534.406 432.373 533.934 433.213 533.094C434.053 532.254 434.525 531.116 434.526 529.928V335.403C434.525 334.216 434.053 333.077 433.213 332.238C432.373 331.398 431.235 330.926 430.047 330.924H429.919L429.804 330.975L354.541 362.202L250.848 405.221C250.454 405.382 250.031 405.464 249.605 405.462C249.179 405.46 248.758 405.374 248.365 405.208L147.859 362.291L74.4 330.924H74.2719C73.0844 330.926 71.9458 331.398 71.1061 332.238C70.2664 333.077 69.794 334.216 69.7927 335.403ZM71.0725 335.403C71.0744 334.577 71.3947 333.784 71.9667 333.188C72.5388 332.592 73.3186 332.24 74.1438 332.204L147.859 363.68L247.859 406.386C248.972 406.853 250.223 406.86 251.34 406.405L354.541 363.584L430.169 332.204C430.996 332.237 431.777 332.589 432.351 333.185C432.925 333.781 433.245 334.576 433.247 335.404V529.928C433.246 530.777 432.909 531.59 432.309 532.19C431.709 532.79 430.896 533.127 430.047 533.128H74.2719C73.4235 533.127 72.6099 532.79 72.01 532.19C71.41 531.59 71.0728 530.777 71.0725 529.928V335.403Z" fill="#3F3D56"/>
<path d="M169.383 273.943H239.77C241.128 273.943 242.43 273.404 243.39 272.444C244.35 271.484 244.889 270.182 244.889 268.824C244.889 267.466 244.35 266.164 243.39 265.204C242.43 264.244 241.128 263.705 239.77 263.705H169.383C168.025 263.705 166.723 264.244 165.763 265.204C164.803 266.164 164.264 267.466 164.264 268.824C164.264 270.182 164.803 271.484 165.763 272.444C166.723 273.404 168.025 273.943 169.383 273.943Z" fill="#BABAD4"/>
<path d="M169.425 252.187H203.339C204.697 252.187 205.999 251.648 206.959 250.688C207.919 249.728 208.458 248.426 208.458 247.068C208.458 245.711 207.919 244.409 206.959 243.449C205.999 242.489 204.697 241.949 203.339 241.949H169.425C168.067 241.949 166.765 242.489 165.805 243.449C164.845 244.409 164.306 245.711 164.306 247.068C164.306 248.426 164.845 249.728 165.805 250.688C166.765 251.648 168.067 252.187 169.425 252.187Z" fill="#BABAD4"/>
<path d="M198.555 325.134H306.056C307.413 325.134 308.716 324.595 309.676 323.635C310.636 322.675 311.175 321.373 311.175 320.015C311.175 318.657 310.636 317.355 309.676 316.395C308.716 315.435 307.413 314.896 306.056 314.896H198.555C197.198 314.896 195.896 315.435 194.936 316.395C193.976 317.355 193.436 318.657 193.436 320.015C193.436 321.373 193.976 322.675 194.936 323.635C195.896 324.595 197.198 325.134 198.555 325.134Z" fill="#CCCCCC"/>
<path d="M198.555 348.81H306.056C307.413 348.81 308.716 348.271 309.676 347.311C310.636 346.351 311.175 345.049 311.175 343.691C311.175 342.333 310.636 341.031 309.676 340.071C308.716 339.111 307.413 338.572 306.056 338.572H198.555C197.198 338.572 195.896 339.111 194.936 340.071C193.976 341.031 193.436 342.333 193.436 343.691C193.436 345.049 193.976 346.351 194.936 347.311C195.896 348.271 197.198 348.81 198.555 348.81Z" fill="#CCCCCC"/>
<path opacity="0.1" d="M448.023 250.729L469.374 249.494L554.684 354.631L524.545 350.021L506.695 347.324C503.358 344.467 500.352 341.246 497.73 337.723L477.894 331.834L468.767 325.09C469.339 327.281 448.023 250.729 448.023 250.729Z" fill="black"/>
<path d="M311.543 247.383C312.155 243.45 314.298 239.92 317.504 237.562C320.71 235.205 324.719 234.212 328.655 234.8L351.415 237.966L379.574 241.884L401.335 244.909L427.34 243.399L450.944 242.027L464.89 241.222L557.618 355.502L477.894 331.834L468.766 325.09L428.802 295.571C428.802 295.571 415.707 293.159 395.065 288.323C391.994 287.594 357.245 278.874 340.921 274.131C337.759 273.21 334.922 272.247 332.358 271.242C314.159 264.078 310.518 254.895 311.543 247.383Z" fill="#FFB7B7"/>
<path opacity="0.15" d="M324.578 261.66C324.66 261.65 332.783 260.638 336.251 254.689C338.587 250.681 338.352 245.284 335.553 238.648L337.72 237.734C340.826 245.097 341.013 251.206 338.274 255.889C334.2 262.856 325.226 263.953 324.846 263.997L324.578 261.66Z" fill="black"/>
<path opacity="0.15" d="M406.723 245.773L406.717 243.422L448.543 243.355L404.449 215.786L405.696 213.791L456.722 245.693L406.723 245.773Z" fill="black"/>
</g>
<defs>
<clipPath id="clip0_12_44">
<rect width="700" height="697" fill="white"/>
</clipPath>
</defs>
</svg>
