<svg width="460" height="330" viewBox="0 0 460 330" fill="none" xmlns="http://www.w3.org/2000/svg">
<g clip-path="url(#clip0_12_230)">
<path d="M372.272 209.774C372.683 209.812 373.096 209.723 373.455 209.518C373.814 209.314 374.101 209.004 374.278 208.631C374.455 208.258 374.513 207.839 374.444 207.432C374.375 207.025 374.182 206.649 373.892 206.354C373.851 206.15 373.821 206.004 373.78 205.8C373.8 205.757 373.82 205.714 373.841 205.671C374.302 204.71 375.036 203.906 375.952 203.361C376.868 202.816 377.925 202.553 378.99 202.607C380.054 202.661 381.08 203.028 381.936 203.662C382.793 204.296 383.443 205.169 383.806 206.172C385.253 210.174 387.145 214.203 387.463 218.378C387.603 220.223 387.421 222.079 386.926 223.862C391.144 215.689 393.554 206.704 393.995 197.517C394.103 195.212 394.082 192.902 393.933 190.599C393.808 188.711 393.601 186.833 393.311 184.964C391.727 174.822 387.759 165.201 381.734 156.89C378.717 155.056 376.333 152.341 374.906 149.112C374.388 147.95 374.042 146.72 373.876 145.46C374.224 145.522 374.577 145.567 374.926 145.606C375.034 145.617 375.148 145.628 375.257 145.639L375.298 145.642C375.681 145.678 376.066 145.601 376.407 145.423C376.747 145.244 377.029 144.971 377.218 144.635C377.407 144.3 377.495 143.918 377.472 143.534C377.448 143.15 377.314 142.781 377.086 142.471C376.944 142.278 376.802 142.086 376.659 141.893C376.444 141.596 376.222 141.305 376.006 141.008C375.981 140.98 375.958 140.95 375.936 140.919C375.688 140.58 375.439 140.247 375.191 139.908C375.706 139.184 376.382 138.589 377.166 138.17C379.877 136.746 383.47 137.987 385.265 140.463C387.067 142.94 387.272 146.307 386.468 149.26C385.697 151.768 384.504 154.126 382.941 156.234C383.076 156.424 383.217 156.609 383.351 156.799C385.812 160.286 387.924 164.005 389.659 167.904C389.393 163.614 390.149 159.322 391.865 155.382C393.589 151.715 396.641 148.701 399.349 145.588C402.603 141.848 408.825 143.836 409.138 148.783C409.141 148.831 409.144 148.879 409.146 148.927C408.756 149.123 408.374 149.333 407.999 149.557C407.527 149.841 407.153 150.261 406.924 150.762C406.695 151.263 406.623 151.821 406.717 152.363C406.811 152.906 407.067 153.407 407.451 153.802C407.834 154.196 408.328 154.466 408.868 154.575L408.923 154.586C408.724 155.949 408.421 157.295 408.018 158.613C406.857 162.289 404.948 165.685 402.412 168.589C399.876 171.493 396.768 173.841 393.282 175.487C393.053 175.592 392.83 175.696 392.602 175.794C394.269 181.328 395.21 187.055 395.401 192.831C395.503 196.238 395.329 199.648 394.88 203.028L394.903 202.908C395.812 199.17 397.983 195.859 401.05 193.536C405.602 190.138 411.859 189.1 416.724 186.425C417.242 186.126 417.834 185.981 418.432 186.007C419.029 186.034 419.607 186.23 420.096 186.574C420.585 186.918 420.966 187.394 421.194 187.947C421.421 188.501 421.485 189.107 421.379 189.696C421.371 189.738 421.363 189.78 421.354 189.821C420.636 190.076 419.934 190.375 419.252 190.716C418.862 190.913 418.48 191.123 418.105 191.347C417.633 191.631 417.259 192.051 417.03 192.552C416.801 193.053 416.729 193.611 416.823 194.153C416.917 194.695 417.173 195.197 417.556 195.591C417.94 195.986 418.434 196.256 418.974 196.365L419.029 196.376C419.069 196.383 419.103 196.391 419.143 196.398C417.804 199.219 415.99 201.788 413.779 203.994C411.051 206.661 407.807 208.742 404.246 210.111C400.685 211.48 396.882 212.107 393.07 211.953L393.065 211.953C391.821 216.4 390.118 220.706 387.985 224.801L372.008 224.057C371.959 223.877 371.916 223.691 371.873 223.511C373.347 223.673 374.836 223.654 376.306 223.454C375.188 221.944 374.071 220.423 372.953 218.913C372.928 218.885 372.905 218.855 372.883 218.824C372.316 218.052 371.744 217.285 371.177 216.512L371.177 216.511C371.251 214.228 371.619 211.964 372.271 209.774L372.272 209.774Z" fill="#F2F2F2"/>
<path d="M50.3613 71.621C49.9532 71.6845 49.5355 71.621 49.1647 71.4391C48.7939 71.2572 48.488 70.9657 48.2884 70.6042C48.0889 70.2426 48.0052 69.8284 48.0489 69.4178C48.0926 69.0071 48.2614 68.6198 48.5326 68.3083C48.5613 68.1021 48.5818 67.9541 48.6105 67.7479C48.5877 67.7062 48.5647 67.6645 48.5417 67.6229C48.0224 66.6919 47.2395 65.9352 46.2915 65.4477C45.3435 64.9602 44.2725 64.7637 43.2132 64.8829C42.1539 65.0021 41.1534 65.4317 40.3374 66.1177C39.5214 66.8037 38.9263 67.7155 38.6269 68.7386C37.4296 72.8223 35.7899 76.9608 35.7307 81.1473C35.7053 82.9977 36.0011 84.8386 36.605 86.5879C31.8907 78.6907 28.9295 69.8722 27.9222 60.7302C27.6719 58.4358 27.55 56.1293 27.5571 53.8214C27.5647 51.9291 27.6553 50.0413 27.8292 48.158C28.7839 37.9377 32.1493 28.0897 37.6491 19.4227C40.5479 17.4061 42.7589 14.5493 43.9841 11.2374C44.4289 10.0464 44.699 8.79723 44.7859 7.52885C44.4432 7.61225 44.093 7.67917 43.7479 7.73976C43.6402 7.75721 43.5268 7.77533 43.4192 7.79282L43.3785 7.7991C42.9983 7.8578 42.6093 7.80535 42.2582 7.64807C41.9071 7.4908 41.6089 7.2354 41.3996 6.91262C41.1903 6.58983 41.0788 6.21343 41.0784 5.82872C41.0781 5.44402 41.1889 5.06742 41.3977 4.74425C41.5277 4.54321 41.6578 4.34224 41.788 4.14136C41.985 3.8316 42.1882 3.52693 42.3852 3.21722C42.4085 3.18729 42.4302 3.15603 42.45 3.12363C42.6769 2.77026 42.9042 2.42263 43.1311 2.06926C42.5718 1.37859 41.8605 0.826458 41.0527 0.455896C38.2581 -0.797054 34.7494 0.662874 33.1102 3.24576C31.4652 5.82923 31.4688 9.20224 32.4528 12.0995C33.3777 14.5552 34.7139 16.8357 36.404 18.8431C36.2813 19.041 36.1524 19.2337 36.0297 19.4316C33.7896 23.0639 31.9107 26.907 30.4202 30.9057C30.421 26.6075 29.4012 22.3705 27.445 18.5432C25.4977 14.9899 22.2656 12.1704 19.3697 9.23038C15.8911 5.69901 9.8034 8.06747 9.79739 13.0243C9.79733 13.0723 9.7974 13.1203 9.79758 13.1682C10.199 13.3404 10.5938 13.5266 10.982 13.7268C11.4701 13.9813 11.8699 14.3773 12.1291 14.8629C12.3883 15.3486 12.4947 15.9012 12.4344 16.4483C12.3742 16.9955 12.1501 17.5117 11.7914 17.9292C11.4328 18.3468 10.9564 18.6464 10.4246 18.7886L10.3701 18.8031C10.6531 20.1515 11.0382 21.4763 11.522 22.7663C12.9086 26.3634 15.0235 29.6354 17.7339 32.3769C20.4443 35.1185 23.6919 37.2705 27.273 38.6982C27.5077 38.788 27.7366 38.8784 27.9707 38.9625C26.6481 44.5886 26.0627 50.3627 26.2293 56.1397C26.3384 59.5468 26.7228 62.9395 27.3789 66.2846L27.3487 66.1668C26.2108 62.4915 23.8394 59.3215 20.635 57.1922C15.8813 54.0822 9.57262 53.4327 4.55149 51.0634C4.01623 50.7966 3.41584 50.6884 2.82112 50.7517C2.2264 50.8149 1.66217 51.0469 1.19497 51.4202C0.727762 51.7936 0.377074 52.2928 0.184267 52.8589C-0.00854003 53.4251 -0.0354276 54.0345 0.106779 54.6155C0.117649 54.6567 0.128633 54.6979 0.139722 54.7392C0.872591 54.9487 1.59169 55.2036 2.29286 55.5025C2.69424 55.6748 3.08906 55.861 3.47731 56.0611C3.96539 56.3156 4.36521 56.7116 4.62438 57.1973C4.88355 57.6829 4.98997 58.2355 4.92971 58.7827C4.86946 59.3298 4.64533 59.846 4.2867 60.2636C3.92806 60.6812 3.45164 60.9807 2.91987 61.1229L2.86537 61.1375C2.82611 61.1475 2.79252 61.157 2.75332 61.167C4.26382 63.8997 6.23342 66.3519 8.57585 68.4163C11.4634 70.9096 14.8297 72.7869 18.4685 73.933C22.1072 75.0791 25.9417 75.4699 29.7369 75.0814L29.7426 75.0808C31.2587 79.4425 33.224 83.6349 35.6069 87.5903L51.5069 85.8608C51.5448 85.678 51.5762 85.49 51.6083 85.3078C50.1466 85.5604 48.6595 85.6331 47.1801 85.5242C48.2024 83.9483 49.2233 82.3611 50.2456 80.7852C50.269 80.7553 50.2906 80.7241 50.3104 80.6917C50.8282 79.8857 51.3523 79.0849 51.8701 78.2789L51.8703 78.278C51.6552 76.0035 51.1482 73.7663 50.3617 71.6213L50.3613 71.621Z" fill="#F2F2F2"/>
<path d="M270.034 65.7287C270.821 65.9452 271.551 66.3317 272.173 66.8608C272.794 67.39 273.292 68.049 273.631 68.7914C273.971 69.5338 274.143 70.3416 274.136 71.1578C274.13 71.974 273.944 72.7788 273.593 73.5156L282.125 83.0018L277.625 89.5929L265.764 76.0273C264.565 75.355 263.655 74.2663 263.205 72.9677C262.756 71.669 262.798 70.2506 263.325 68.9812C263.851 67.7117 264.825 66.6795 266.061 66.08C267.298 65.4806 268.712 65.3556 270.034 65.7287Z" fill="#A0616A"/>
<path d="M349.913 89.0222C349.144 87.7702 348.135 86.6824 346.945 85.8212C345.754 84.9599 344.405 84.3422 342.975 84.0033C341.546 83.6645 340.063 83.6113 338.613 83.8468C337.162 84.0822 335.773 84.6016 334.523 85.3753L306.462 102.755L276.193 77.0247L268.662 84.0365L302.101 127.422L345.562 104.765C344.548 105.294 351.139 91.017 349.913 89.0222Z" fill="#CCCCCC"/>
<path d="M294.323 146.81C294.326 160.669 291.599 174.392 286.296 187.197C280.994 200.001 273.221 211.636 263.421 221.435C253.622 231.235 241.987 239.008 229.183 244.31C216.378 249.612 202.655 252.34 188.796 252.337C130.515 252.337 83.2681 205.09 83.2681 146.81C83.258 135.473 85.0753 124.209 88.65 113.451C95.6683 92.4407 109.114 74.1681 127.085 61.2172C145.056 48.2663 166.644 41.2925 188.796 41.282C207.9 41.2754 226.648 46.4568 243.037 56.2731C259.427 66.0895 272.843 80.1722 281.854 97.0181C284.088 101.174 286.037 105.478 287.687 109.898C287.916 110.514 288.138 111.13 288.355 111.751V111.757C289.323 114.489 290.175 117.272 290.911 120.105C293.184 128.825 294.331 137.799 294.323 146.81Z" fill="#3F3D56"/>
<path d="M177.25 75.6113C172.508 73.0468 167.242 71.5991 161.856 71.3787C156.469 71.1583 151.103 72.171 146.167 74.3396C141.82 76.231 137.244 79.624 135.794 85.751C141.658 82.2905 149.249 87.7581 150.757 96.5294L150.405 96.6265C149.608 102.702 151.387 109.316 154.832 113.083C155.284 109.17 157.857 106.507 160.387 104.844C162.918 103.18 165.718 101.972 167.649 99.1122C169.939 95.7222 170.521 90.7678 171.43 86.2481C172.34 81.7285 174.066 76.8707 177.25 75.6113Z" fill="white"/>
<path d="M144.427 127.31C142.803 129.749 140.634 131.279 138.688 133.185C136.747 135.096 134.9 137.676 134.513 140.988C134.267 143.11 134.648 145.268 134.595 147.413C134.543 149.559 133.827 151.975 132.368 152.508C130.064 153.341 128.305 149.061 125.936 148.762C124.054 148.527 122.36 151.488 122.905 154.056C123.451 156.624 126.013 157.761 127.484 156.084C128.815 158.318 127.877 162.369 125.878 163.055C125.667 164.462 125.456 165.863 125.25 167.27C120.197 163.735 115.09 160.141 110.793 154.965C106.014 149.256 103.049 142.249 102.281 134.844C101.724 128.893 102.55 122.087 99.8183 117.508C97.6314 113.844 93.8793 113.035 90.5024 113.264C89.8869 113.305 89.2655 113.375 88.6499 113.451C90.6414 107.47 93.1707 101.681 96.2068 96.1563C96.8939 95.8614 97.5323 95.4641 98.1004 94.9779C101.243 92.3105 102.638 86.9109 105.188 83.1764C105.353 82.936 105.523 82.7015 105.698 82.4729C108.307 79.0667 111.802 77.3137 115.178 75.6839C122.653 72.055 130.345 68.3791 138.236 68.8833L135.991 69.1002C133.37 76.4402 130.748 83.7803 128.123 91.1203C127.724 92.2459 127.322 93.3735 126.915 94.5031C125.426 98.6772 123.89 103.121 124.119 107.794C124.254 110.561 125.215 113.516 127.044 114.465C128.75 115.345 130.615 114.266 132.262 113.199C132.96 112.753 133.652 112.308 134.349 111.856C136.853 110.244 139.626 108.591 142.27 109.67C144.691 110.655 146.479 113.944 146.819 117.49C147.131 120.938 146.29 124.392 144.427 127.31Z" fill="white"/>
<path d="M159.316 177.423C152.005 172.921 144.693 168.419 137.382 163.918L137.506 163.598C132.96 165.33 131.073 173.41 131.824 180.018C132.575 186.626 135.123 192.533 136.41 198.972C138.145 207.783 137.49 216.899 134.513 225.371C144.127 214.584 152.635 202.86 159.91 190.375C160.926 188.801 161.701 187.084 162.207 185.281C162.672 183.362 162.6 181.056 161.67 179.517C161.072 178.634 160.263 177.914 159.316 177.423Z" fill="white"/>
<path d="M130.461 95.5243C129.684 97.2698 129.386 99.5974 130.09 101.404C130.81 103.248 132.331 104.082 133.731 104.776L137.771 106.778C139.115 107.444 140.564 108.117 141.934 107.569C143.586 106.908 144.732 104.317 144.435 101.912C144.12 99.353 142.507 97.5926 141.015 96.0934C138.927 93.9954 136.839 91.8975 134.751 89.7996L133.574 91.2408C132.302 92.4822 131.249 93.9306 130.461 95.5243Z" fill="white"/>
<path d="M272.667 122.884C274.484 123.312 276.302 123.74 278.119 124.168C277.802 130.306 274.76 135.987 270.679 138.045C268.979 138.901 267.086 139.217 265.679 140.818C264.406 142.272 263.761 144.535 263.169 146.698C262.132 150.474 261.094 154.249 260.056 158.025C258.942 162.093 257.512 166.614 254.616 168.079C252.13 169.34 249.287 167.798 247.375 165.212C245.464 162.627 244.297 159.15 243.166 155.762C243.236 159.455 241.519 163.078 239.086 164.362C236.647 165.646 233.68 164.485 232.05 161.619C230.878 159.561 230.391 156.846 229.242 154.759C228.093 152.672 225.684 151.476 224.429 153.434C223.602 154.736 223.708 156.729 223.297 158.382C222.658 160.95 220.724 162.562 218.807 162.703C216.895 162.844 215.031 161.742 213.431 160.247C210.13 157.151 207.697 152.238 206.753 146.78C206.337 144.347 206.22 141.697 206.941 139.417C207.662 137.136 209.403 135.377 211.132 135.811C212.27 133.408 210.024 130.218 208.002 130.5C205.973 130.781 204.385 132.956 202.72 134.627C201.06 136.298 198.739 137.511 197.068 135.852C197.08 137.394 195.825 138.414 194.74 138.285C193.662 138.162 192.7 137.295 191.71 136.679C187.881 134.293 183.021 135.876 180.301 140.39C182.001 133.155 184.493 124.854 189.716 123.154C191.85 122.456 194.178 123.031 196.194 121.823C199.765 119.683 200.486 111.598 197.402 108.263C197.795 111.417 197.719 115.098 196.054 117.256C194.389 119.413 190.895 118.006 191.106 114.817C190.625 117.016 188.233 117.35 187.131 115.661C186.023 113.973 186.117 111.212 186.902 109.195C187.688 107.178 189.024 105.73 190.32 104.341C193.105 101.356 195.931 98.3372 199.155 96.4611C202.385 94.585 206.114 93.9519 209.35 95.8162C211.056 96.8011 212.557 98.4427 214.298 99.3104C216.04 100.184 218.25 100.073 219.405 98.0323C220.7 95.7576 220.091 92.3807 220.571 89.5373C221.433 84.513 226.457 82.1621 229.242 85.4803C227.161 84.9468 225.009 87.4092 224.751 90.3933C224.488 93.3774 225.994 96.3908 228.011 97.2936C231.4 98.7944 234.718 95.0189 237.28 91.5248C239.953 87.8665 242.63 84.2101 245.312 80.5558C245.74 79.9336 246.22 79.3491 246.748 78.8087C247.588 77.9902 248.707 77.5215 249.88 77.4975C251.052 77.4736 252.19 77.8962 253.062 78.6797C255.771 80.8899 257.043 85.4218 259.265 88.5407C262.489 93.0725 267.314 94.1747 271.805 95.0541C275.153 95.7048 278.502 96.3595 281.854 97.0181C284.088 101.174 286.037 105.478 287.687 109.898C282.012 112.308 276.776 116.816 272.667 122.884Z" fill="white"/>
<path d="M283.489 193.424C280.978 198.524 278.056 203.412 274.754 208.039C272.643 207.136 270.375 208.749 268.399 210.261C266.335 211.844 263.855 213.386 261.739 211.944C259.576 210.466 258.878 206.333 259.564 203.056C260.25 199.785 261.962 197.182 263.621 194.708C265.38 192.081 267.261 189.355 269.706 188.335C272.157 187.315 275.305 188.757 276.02 192.239L277.756 192.181C276.782 190.844 277.293 188.077 278.6 187.59C280.107 187.022 281.414 189.091 282.305 190.92C282.704 191.747 283.108 192.579 283.489 193.424Z" fill="white"/>
<path d="M217.027 168.66C213.297 168.895 210.342 164.303 208.379 159.786C206.416 155.268 204.624 150.102 201.259 147.803C199.336 146.489 197.143 146.309 195.057 145.672C192.971 145.036 190.788 143.718 189.791 141.035L187.425 140.08C184.3 141.837 181.134 143.626 178.441 146.485C175.421 149.693 173.54 153.805 173.088 158.188C172.636 162.924 174.305 168.205 177.424 169.984C179.888 171.39 182.757 170.503 185.253 171.79C188.372 173.398 190.224 178.069 190.924 182.681C191.625 187.293 191.448 192.086 191.949 196.75C192.451 201.414 193.833 206.267 196.693 208.657C200.272 211.649 205.523 209.163 207.129 203.718C207.917 201.048 207.889 198.034 208.478 195.262C209.516 190.379 212.315 186.757 214.536 182.752C216.756 178.747 218.504 173.308 217.027 168.66Z" fill="white"/>
<path d="M180.169 120.685C180.517 121.006 180.841 121.35 181.14 121.717C181.45 122.25 181.608 122.858 181.597 123.474C181.586 124.091 181.408 124.692 181.081 125.215C181.53 125.189 181.969 125.071 182.37 124.867C182.771 124.663 183.126 124.378 183.411 124.03C184.092 123.255 184.691 122.411 185.198 121.513C185.579 120.893 185.984 120.054 185.725 119.317C185.549 118.814 185.132 118.6 184.84 118.221C184.377 117.622 184.263 116.67 184.023 115.847C183.505 114.07 182.265 112.763 180.92 112.577L181.107 112.612C180.544 112.805 180.152 113.698 180.276 114.501C180.389 115.233 180.859 115.84 180.813 116.586C180.745 117.659 179.673 118.163 179.607 119.236C179.596 119.774 179.798 120.295 180.169 120.685Z" fill="white"/>
<path d="M173.778 102.452C173.784 102.451 173.789 102.451 173.795 102.449C173.909 102.345 174.016 102.231 174.113 102.11L173.778 102.452Z" fill="#E6E6E6"/>
<path d="M174.897 107.489C175.721 106.958 176.182 105.492 175.909 104.264C175.638 103.044 174.679 102.224 173.795 102.449C173.538 102.709 173.22 102.9 172.869 103.003C172.518 103.106 172.147 103.119 171.791 103.039C171.244 102.898 170.643 102.536 170.169 102.948C169.898 103.255 169.708 103.626 169.617 104.026C169.441 104.565 169.266 105.104 169.09 105.643C169.007 105.836 168.985 106.05 169.028 106.256C169.061 106.338 169.116 106.411 169.185 106.466C169.255 106.521 169.338 106.558 169.426 106.572C170.479 106.883 171.533 107.193 172.586 107.504C173.354 107.73 174.182 107.948 174.897 107.489Z" fill="white"/>
<path d="M254.419 177.019C253.932 176.222 253.445 175.425 252.958 174.627C252.48 173.704 251.826 172.883 251.033 172.21C250.859 172.064 250.657 171.955 250.44 171.888C250.222 171.821 249.994 171.798 249.768 171.821C249.541 171.843 249.322 171.911 249.122 172.02C248.923 172.128 248.747 172.276 248.605 172.454L248.664 172.909C249.774 174.302 250.948 175.848 251.23 177.915C251.341 178.73 251.302 179.573 251.399 180.391C251.497 181.209 251.773 182.058 252.302 182.411C253.068 182.923 253.969 182.168 254.514 181.246C255.002 180.489 255.221 179.59 255.136 178.694C255.014 178.092 254.77 177.522 254.419 177.019Z" fill="white"/>
<path d="M276.089 146.573C276.23 145.65 276.371 144.726 276.512 143.803C276.741 142.788 276.769 141.739 276.596 140.714C276.556 140.49 276.473 140.276 276.349 140.085C276.226 139.894 276.066 139.729 275.879 139.601C275.691 139.473 275.479 139.383 275.257 139.338C275.034 139.292 274.804 139.292 274.581 139.336L274.333 139.723C274.286 141.503 274.188 143.443 273.073 145.205C272.633 145.9 272.06 146.52 271.608 147.209C271.155 147.897 270.821 148.725 270.998 149.335C271.254 150.22 272.429 150.222 273.44 149.869C274.301 149.604 275.047 149.057 275.559 148.316C275.854 147.777 276.034 147.184 276.089 146.573Z" fill="#E6E6E6"/>
<path d="M262.057 178.057C262.295 177.372 261.952 176.587 261.879 175.831C261.844 174.854 262.103 173.889 262.622 173.061C263.138 172.28 263.529 171.423 263.781 170.521C263.887 170.11 263.868 169.677 263.725 169.277C263.564 168.915 263.174 168.75 262.95 169.037L263.429 169.345C262.782 169.23 262.117 169.262 261.484 169.439C261.123 169.578 260.801 169.801 260.544 170.09C260.288 170.379 260.105 170.726 260.01 171.101C259.931 171.685 259.802 172.262 259.624 172.825C259.338 173.412 258.785 173.608 258.437 174.123C258.2 174.581 258.08 175.09 258.089 175.604C258.097 176.119 258.234 176.624 258.486 177.073C258.923 177.808 259.617 178.354 260.434 178.605C261.019 178.815 261.789 178.826 262.057 178.057Z" fill="white"/>
<path d="M275.66 182.161C275.871 182.711 276.155 183.231 276.503 183.707C277.154 184.363 278.039 183.96 278.829 183.801C279.546 183.688 280.28 183.771 280.954 184.041C281.627 184.311 282.215 184.758 282.655 185.336C282.349 183.808 281.68 182.375 280.706 181.159C279.731 179.943 278.479 178.979 277.054 178.347C275.192 177.588 273.23 177.515 271.293 177.447L270.959 177.532C271.811 180.014 274.488 179.958 275.66 182.161Z" fill="white"/>
<path d="M218.047 187.236L218.052 187.247C218.085 187.184 218.117 187.122 218.15 187.059L218.047 187.236Z" fill="#E6E6E6"/>
<path d="M215.984 191.23C215.534 192.047 215.147 192.898 214.826 193.773C214.402 195.192 214.12 196.65 213.987 198.125C213.882 198.964 213.85 200.035 214.375 200.443C214.526 200.544 214.708 200.585 214.888 200.561C215.067 200.537 215.232 200.448 215.35 200.311C215.642 200.002 215.881 199.647 216.057 199.26C217.09 197.482 217.892 195.579 218.443 193.598C218.946 191.511 218.941 189.054 218.052 187.247C217.363 188.575 216.673 189.903 215.984 191.23Z" fill="white"/>
<path d="M196.076 84.814C196.404 85.1344 196.818 85.3519 197.268 85.4397C197.718 85.5275 198.184 85.4818 198.608 85.3082C199.486 84.9241 200.292 84.3918 200.99 83.7345C201.568 83.3069 202.059 82.772 202.434 82.1591C202.642 81.7928 202.774 81.3892 202.825 80.9715C202.876 80.5538 202.843 80.1302 202.73 79.725C202.404 78.7709 201.576 78.451 200.845 78.2344C199.676 77.8877 198.507 77.541 197.338 77.1943L198.184 76.432C197.313 75.965 196.351 76.8317 195.807 77.9048C195.458 78.6054 195.215 79.3539 195.085 80.1258C194.794 81.8101 195.079 83.8158 196.076 84.814Z" fill="#E6E6E6"/>
<path d="M216.718 77.8843C217.048 78.2476 217.503 78.4719 217.992 78.5117C218.481 78.5514 218.967 78.4037 219.351 78.0985C219.681 77.8502 219.956 77.5352 220.156 77.1739C220.357 76.8126 220.479 76.413 220.515 76.0013C220.598 75.0816 220.143 74.0594 219.494 73.98L219.642 73.119C218.391 72.893 216.852 72.8478 216.181 74.3671C215.955 74.9491 215.886 75.5802 215.98 76.1974C216.074 76.8147 216.329 77.3963 216.718 77.8843Z" fill="#E6E6E6"/>
<path d="M213.961 32.0941C206.626 31.2667 199.263 33.3869 193.492 37.9882C187.721 42.5896 184.013 49.2951 183.186 56.6297C181.463 71.9032 189.51 105.07 204.18 118.8C211.088 92.4948 235.294 76.8922 238.496 62.8687C241.919 47.8842 229.234 33.8169 213.961 32.0941Z" fill="#BABAD4"/>
<path d="M208.888 66.0487C213.901 66.0487 217.965 61.985 217.965 56.9722C217.965 51.9594 213.901 47.8958 208.888 47.8958C203.875 47.8958 199.812 51.9594 199.812 56.9722C199.812 61.985 203.875 66.0487 208.888 66.0487Z" fill="white"/>
<path d="M199.345 131.887C202.628 131.887 205.289 129.225 205.289 125.942C205.289 122.659 202.628 119.997 199.345 119.997C196.061 119.997 193.4 122.659 193.4 125.942C193.4 129.225 196.061 131.887 199.345 131.887Z" fill="#BABAD4"/>
<path opacity="0.2" d="M216.398 50.4694C217.42 51.0833 218.31 51.8925 219.019 52.8506C219.728 53.8088 220.242 54.8972 220.53 56.0537C220.818 57.2102 220.876 58.4122 220.7 59.591C220.524 60.7698 220.117 61.9024 219.503 62.924C218.889 63.9457 218.08 64.8364 217.122 65.5454C216.164 66.2543 215.075 66.7676 213.919 67.056C211.583 67.6383 209.112 67.2688 207.048 66.029C209.152 66.497 211.354 66.201 213.259 65.194C215.165 64.1871 216.65 62.5348 217.448 60.5331C218.247 58.5313 218.307 56.3107 217.618 54.2687C216.929 52.2266 215.535 50.4965 213.687 49.3879C214.643 49.5998 215.559 49.965 216.398 50.4694Z" fill="#231F20"/>
<path opacity="0.2" d="M238.532 62.898C235.329 76.9214 211.123 92.5241 204.216 118.829C202.836 117.525 201.555 116.122 200.382 114.629C208.144 89.903 230.843 74.8786 233.938 61.3295C236.707 49.2027 228.927 37.6779 217.764 32.8094C231.277 36.2065 241.668 49.1661 238.532 62.898Z" fill="#231F20"/>
<path d="M128.905 67.509C123.397 66.8877 117.868 68.4799 113.534 71.9353C109.2 75.3907 106.416 80.4264 105.795 85.9344C104.501 97.4043 110.543 122.311 121.561 132.622C126.748 112.868 144.926 101.151 147.331 90.6197C149.901 79.3668 140.375 68.8028 128.905 67.509Z" fill="#BABAD4"/>
<path d="M125.096 93.0077C128.86 93.0077 131.912 89.956 131.912 86.1916C131.912 82.4272 128.86 79.3755 125.096 79.3755C121.331 79.3755 118.28 82.4272 118.28 86.1916C118.28 89.956 121.331 93.0077 125.096 93.0077Z" fill="white"/>
<path d="M117.929 142.45C120.395 142.45 122.393 140.451 122.393 137.985C122.393 135.52 120.395 133.521 117.929 133.521C115.463 133.521 113.465 135.52 113.465 137.985C113.465 140.451 115.463 142.45 117.929 142.45Z" fill="#BABAD4"/>
<path opacity="0.2" d="M130.735 81.3083C131.503 81.7693 132.172 82.3769 132.704 83.0965C133.236 83.816 133.622 84.6333 133.838 85.5019C134.055 86.3704 134.098 87.273 133.966 88.1582C133.834 89.0435 133.528 89.894 133.067 90.6612C132.606 91.4285 131.998 92.0974 131.279 92.6298C130.559 93.1622 129.742 93.5477 128.874 93.7642C128.005 93.9807 127.102 94.024 126.217 93.8917C125.332 93.7594 124.481 93.454 123.714 92.993C125.294 93.3444 126.947 93.1221 128.378 92.3659C129.809 91.6097 130.924 90.3689 131.524 88.8657C132.124 87.3624 132.169 85.6949 131.651 84.1614C131.134 82.6279 130.087 81.3286 128.7 80.4961C129.417 80.6552 130.105 80.9295 130.735 81.3083Z" fill="#231F20"/>
<path opacity="0.2" d="M147.357 90.6416C144.952 101.173 126.774 112.89 121.587 132.644C120.551 131.665 119.589 130.611 118.708 129.49C124.537 110.921 141.583 99.6387 143.907 89.4637C145.987 80.3569 140.145 71.7022 131.761 68.0461C141.909 70.5972 149.712 80.3295 147.357 90.6416Z" fill="#231F20"/>
<path d="M342.303 314.426H334.819L331.259 285.559L342.304 285.56L342.303 314.426Z" fill="#A0616A"/>
<path d="M346.329 328.636H341.018L340.07 323.622L337.643 328.636H323.558C322.883 328.636 322.226 328.42 321.682 328.02C321.138 327.62 320.736 327.056 320.536 326.412C320.335 325.767 320.345 325.075 320.565 324.437C320.785 323.799 321.204 323.248 321.759 322.864L333.007 315.096V310.028L344.837 310.734L346.329 328.636Z" fill="#2F2E41"/>
<path d="M313.316 314.426H305.832L302.272 285.559L313.318 285.56L313.316 314.426Z" fill="#A0616A"/>
<path d="M317.342 328.636H312.032L311.084 323.622L308.656 328.636H294.572C293.896 328.636 293.239 328.42 292.695 328.02C292.151 327.62 291.75 327.056 291.549 326.412C291.348 325.767 291.358 325.075 291.578 324.437C291.798 323.799 292.217 323.248 292.772 322.864L304.02 315.096V310.028L315.85 310.734L317.342 328.636Z" fill="#2F2E41"/>
<path d="M284.884 238.212C286.316 240.36 301.897 299.415 301.897 299.415L315.711 300.991L314.072 286.132L311.565 259.838L307.684 242.287C307.684 242.287 321.39 211.094 322.256 208.609L322.872 206.826L327.154 245.688C327.663 247.075 327.885 248.552 327.806 250.027C327.677 252.455 330.112 288.975 330.112 288.975L331.282 302.072L343.119 303.716L347.921 281.055C351.931 273.694 349.632 247.535 347.992 245.101C346.353 242.666 347.004 225.709 347.004 225.709C349.098 224.972 361.585 182.393 355.339 182.644C355.74 180.374 356.055 178.348 356.055 178.348L345.214 169.604L318.082 162.551L311.237 159.264C311.237 159.264 299.011 181.871 299.133 182.995C299.301 184.419 298.975 185.858 298.209 187.07L285.865 228.38C285.865 228.38 283.438 236.042 284.884 238.212Z" fill="#2F2E41"/>
<path d="M353.049 90.3873L348.733 81.2229L334.042 81.7875L329.25 91.3216C329.25 91.3216 315.556 107.678 315.112 112.997C314.555 119.686 319.188 152.47 314.555 150.345C314.555 150.345 303.632 163.166 310.095 163.166C316.559 163.166 345.795 181.52 347.713 183.584C349.632 185.647 358.196 186.986 357.478 182.677C356.76 178.368 353.049 155.065 353.049 155.065L363.094 118.423C365.984 110.512 366.884 101.638 360.349 96.3238L353.049 90.3873Z" fill="#CCCCCC"/>
<path d="M298.633 63.4141C296.667 62.6341 294.568 62.2487 292.454 62.2801C290.34 62.3114 288.253 62.7588 286.312 63.5968C284.371 64.4347 282.614 65.6467 281.141 67.1637C279.669 68.6806 278.509 70.4727 277.729 72.4378C274.449 80.7018 273.905 100.437 280.01 110.328C287.859 96.6933 303.739 91.6587 307.656 84.3172C311.841 76.4724 306.897 66.6945 298.633 63.4141Z" fill="#BABAD4"/>
<path d="M292.024 81.7814C294.924 81.7814 297.275 79.4307 297.275 76.531C297.275 73.6312 294.924 71.2805 292.024 71.2805C289.124 71.2805 286.774 73.6312 286.774 76.531C286.774 79.4307 289.124 81.7814 292.024 81.7814Z" fill="white"/>
<path d="M276.227 117.019C278.126 117.019 279.665 115.48 279.665 113.581C279.665 111.681 278.126 110.142 276.227 110.142C274.327 110.142 272.788 111.681 272.788 113.581C272.788 115.48 274.327 117.019 276.227 117.019Z" fill="#BABAD4"/>
<path opacity="0.2" d="M297.203 74.0411C298.165 75.0467 298.689 76.3931 298.658 77.7843C298.628 79.1756 298.047 80.4979 297.042 81.4608C296.037 82.4237 294.692 82.9483 293.3 82.9195C291.909 82.8906 290.586 82.3107 289.622 81.307C290.726 81.8876 291.999 82.0566 293.216 81.7838C294.432 81.5109 295.512 80.8141 296.262 79.818C297.011 78.8218 297.382 77.5914 297.307 76.347C297.233 75.1025 296.718 73.9253 295.854 73.0259C296.356 73.2893 296.811 73.6321 297.203 74.0411Z" fill="#231F20"/>
<path opacity="0.2" d="M307.672 84.339C303.755 91.6805 287.875 96.7151 280.026 110.35C279.453 109.413 278.951 108.434 278.523 107.423C286.61 94.7997 301.561 89.8592 305.345 82.766C308.732 76.4173 306.139 68.8032 300.647 64.3909C307.674 68.3386 311.507 77.15 307.672 84.339Z" fill="#231F20"/>
<path d="M274.677 112.396C275.476 112.232 276.302 112.244 277.096 112.433C277.89 112.622 278.633 112.983 279.273 113.49C279.912 113.997 280.433 114.638 280.798 115.368C281.163 116.098 281.363 116.9 281.385 117.716L293.297 122.288L292.284 130.204L275.553 123.511C274.18 123.457 272.874 122.901 271.883 121.948C270.893 120.996 270.286 119.713 270.178 118.343C270.07 116.973 270.468 115.611 271.297 114.515C272.127 113.419 273.329 112.665 274.677 112.396Z" fill="#A0616A"/>
<path d="M357.906 96.083C356.652 95.3174 355.259 94.8069 353.807 94.5807C352.355 94.3546 350.873 94.4173 349.445 94.7653C348.017 95.1133 346.673 95.7397 345.488 96.6086C344.303 97.4775 343.301 98.5717 342.54 99.8286L325.442 128.062L286.786 118.899L283.264 128.568L332.768 152.017L357.84 112.084C361.593 106.808 363.432 99.4567 357.906 96.083Z" fill="#CCCCCC"/>
<path d="M358.544 61.4816C358.545 64.2029 357.878 66.8827 356.602 69.286C355.325 71.6893 353.478 73.7424 351.223 75.2653C348.968 76.7881 346.373 77.7341 343.667 78.0201C340.961 78.3062 338.226 77.9235 335.702 76.9058C333.178 75.8881 330.943 74.2664 329.192 72.1831C327.442 70.0998 326.229 67.6186 325.661 64.9573C325.093 62.296 325.187 59.536 325.935 56.9195C326.683 54.3031 328.062 51.9102 329.95 49.9509L330.03 49.8712C330.163 49.7315 330.296 49.5918 330.435 49.4588C330.436 49.4588 330.437 49.4586 330.438 49.4583C330.439 49.458 330.44 49.4575 330.44 49.4569C330.441 49.4563 330.441 49.4555 330.442 49.4547C330.442 49.4539 330.442 49.453 330.442 49.4521C330.615 49.2926 330.788 49.133 330.967 48.98C333.37 46.874 336.328 45.5049 339.488 45.0366C342.648 44.5684 345.877 45.021 348.786 46.34C351.696 47.6591 354.164 49.7889 355.894 52.4743C357.625 55.1597 358.545 58.2869 358.544 61.4816Z" fill="#2F2E41"/>
<path d="M337.824 79.2683C345.523 79.2683 351.764 73.027 351.764 65.328C351.764 57.629 345.523 51.3877 337.824 51.3877C330.125 51.3877 323.884 57.629 323.884 65.328C323.884 73.027 330.125 79.2683 337.824 79.2683Z" fill="#9E616A"/>
<path d="M352.627 69.3035L350.318 68.8955C349.027 68.6609 347.839 68.0379 346.912 67.1097C345.985 66.1816 345.364 64.9925 345.131 63.7016L342.877 67.4788L342.778 67.5114C337.409 69.2943 331.822 68.7611 325.702 65.8835C323.952 65.0535 322.255 64.1176 320.619 63.081L320.498 63.0056L320.489 62.8638C320.177 58.3289 321.194 54.5404 323.355 52.196C324.184 51.314 325.191 50.6172 326.308 50.1513C327.426 49.6854 328.629 49.461 329.84 49.4927C329.926 49.4702 330.005 49.4265 330.07 49.3656C330.101 49.3427 330.132 49.3201 330.163 49.2986V49.2752L330.323 49.1998C330.667 49.0381 331.018 48.8832 331.368 48.7417C334.127 47.6739 337.131 47.406 340.034 47.9689C342.938 48.5317 345.624 49.9025 347.784 51.9236C352.078 56.023 354.048 62.9025 352.685 69.043L352.627 69.3035Z" fill="#2F2E41"/>
<path d="M382.03 81.1808C377.286 78.7322 383.388 69.8456 382.162 64.6498C380.936 59.454 372.107 57.7829 371.545 52.4741C370.982 47.1653 369.659 41.6899 366.156 37.6615C363.917 35.0874 360.619 33.1871 357.223 33.5096C356.074 33.6187 354.962 33.9741 353.963 34.5517C352.963 35.1293 352.1 35.9155 351.432 36.8567C350.764 37.7979 350.307 38.8721 350.091 40.006C349.876 41.1399 349.907 42.3069 350.184 43.4276C349.217 42.0575 346.714 42.3544 346.095 43.9128C345.544 45.2982 346.761 46.9763 348.192 47.0989C350.066 49.4123 352.211 51.8674 355.145 52.3341C355.613 52.4414 356.099 52.4412 356.566 52.3333C357.034 52.2254 357.471 52.0127 357.844 51.7112C358.534 51.0482 358.588 49.7226 357.769 49.2271C361.457 50.6922 363.619 54.6797 364.167 58.6103C364.714 62.5408 363.957 66.5177 363.458 70.4546C362.959 74.3916 362.744 78.533 364.288 82.189C366.111 86.5085 370.311 89.6044 374.893 90.5972C379.476 91.59 384.356 90.6197 388.504 88.4335C392.652 86.2472 396.111 82.9096 398.936 79.1678C394.069 82.6241 387.335 83.9189 382.03 81.1808Z" fill="#2F2E41"/>
<path d="M352.034 68.916C352.034 68.916 347.905 53.5019 330.203 49.9442C330.183 49.9376 330.116 49.911 330.03 49.8712C329.977 49.8379 329.91 49.8046 329.844 49.7714C330.043 49.6583 330.236 49.5586 330.436 49.4588L330.438 49.4583L330.44 49.4569L330.442 49.4547L330.442 49.4522C330.615 49.2926 330.788 49.133 330.968 48.98L331.473 49C331.473 49 349.235 46.1872 352.034 68.916Z" fill="#FD6584"/>
<path opacity="0.2" d="M342.788 118.376L332.791 129.959L316.271 125.081L334.28 133.38L342.788 118.376Z" fill="black"/>
<path d="M402.798 329.509L249.084 329.68C248.908 329.68 248.74 329.61 248.616 329.485C248.492 329.361 248.422 329.192 248.422 329.016C248.422 328.841 248.492 328.672 248.616 328.548C248.74 328.423 248.908 328.353 249.084 328.353L402.798 328.181C402.974 328.181 403.142 328.251 403.267 328.376C403.391 328.5 403.461 328.669 403.461 328.845C403.461 329.021 403.391 329.19 403.267 329.314C403.142 329.439 402.974 329.509 402.798 329.509Z" fill="#CACACA"/>
<path d="M409.545 226.36C402.347 226.36 394.458 226.088 385.878 225.544C341.498 222.726 284.013 212.928 224.011 197.956C164.009 182.983 108.66 164.624 68.1589 146.262C48.4297 137.317 33.2876 128.849 23.1538 121.095C12.4247 112.885 7.7317 105.73 9.2045 99.827C12.0742 88.3276 37.4839 85.8118 58.2948 85.7263L58.3019 87.3986C29.7231 87.5159 12.863 92.0737 10.8273 100.232C8.23417 110.623 29.3826 126.845 68.8494 144.739C109.261 163.061 164.509 181.384 224.416 196.333C284.322 211.282 341.702 221.063 385.984 223.875C429.229 226.622 455.521 222.238 458.113 211.847C460.266 203.22 446.074 190.511 418.151 176.06L418.92 174.575C439.209 185.075 462.76 200.135 459.736 212.252C458.263 218.155 450.758 222.266 437.43 224.473C429.833 225.73 420.501 226.36 409.545 226.36Z" fill="#BABAD4"/>
</g>
<defs>
<clipPath id="clip0_12_230">
<rect width="460" height="329.68" fill="white"/>
</clipPath>
</defs>
</svg>
