<svg width="460" height="367" viewBox="0 0 460 367" fill="none" xmlns="http://www.w3.org/2000/svg">
<g clip-path="url(#clip0_12_152)">
<path d="M404.071 355.594L394.508 355.593L389.959 318.708L404.073 318.709L404.071 355.594Z" fill="#FFB6B6"/>
<path d="M404.407 365.57L375 365.569V365.197C375.001 358.876 380.125 353.751 386.446 353.751L391.819 349.676L401.841 353.752L404.408 353.752L404.407 365.57Z" fill="#2F2E41"/>
<path d="M361.676 355.594L352.113 355.593L347.564 318.708L361.678 318.709L361.676 355.594Z" fill="#FFB6B6"/>
<path d="M362.012 365.57L332.605 365.569V365.197C332.606 358.876 337.73 353.751 344.051 353.751L349.424 349.676L359.446 353.752L362.013 353.752L362.012 365.57Z" fill="#2F2E41"/>
<path d="M357.119 149.745L412.291 150.907C412.291 150.907 422.209 167.168 414.637 190.108L415.485 196.496L412 206.369L410.258 236.568L412 241.214L410.839 249.926C410.839 249.926 415.485 307.42 403.87 336.458L389.932 335.877L384.705 260.116L387.609 254.572L387.028 252.249L380.059 217.403L373.09 235.407V245.41L366.701 252.829C366.701 252.829 369.024 321.359 362.636 335.297H347.031L341.148 242.376L346.956 188.366L345.794 184.881L347.537 183.139L346.375 177.331L357.119 149.745Z" fill="#2F2E41"/>
<path d="M380.639 43.7576L397.481 39.6923L402.127 50.7266C402.127 50.7266 426.165 63.5032 427.327 80.9259C427.327 80.9259 430.584 94.864 427.68 101.252C424.777 107.641 412.581 127.967 412.581 127.967C412.581 127.967 423.615 163.393 420.711 165.135C417.808 166.878 348.698 163.393 348.698 159.909C348.698 156.424 360.199 119.836 360.199 119.836L362.636 57.1149L378.316 51.3074L380.639 43.7576Z" fill="#3F3D56"/>
<path d="M425.539 186.719C422.014 184.943 420.596 180.645 422.372 177.12C422.551 176.765 422.762 176.438 422.988 176.127L413.616 111.874L426.591 112.289L433.378 174.894C435.838 176.98 436.653 180.545 435.138 183.553C433.362 187.078 429.064 188.495 425.539 186.719Z" fill="#FFB6B6"/>
<path d="M302.43 156.394C301.011 152.71 302.846 148.574 306.53 147.155C306.9 147.012 307.276 146.911 307.653 146.832L343.856 92.929L353.191 101.949L316.18 152.896C316.601 156.093 314.812 159.282 311.669 160.493C307.986 161.913 303.85 160.077 302.43 156.394Z" fill="#FFB6B6"/>
<path d="M401.897 95.668C398.231 83.074 404.32 70.2249 417.436 70.287C421.227 70.3049 424.173 71.405 424.989 74.4502C427.846 85.1082 429.404 101.197 429.404 101.197L432.793 118.326L430.74 121.882L435.02 133.362L432.944 138.792L432.495 166.525L422.042 165.945L410.524 144.803L406.12 142.184C406.12 142.184 409.656 108 402.622 98.1581L401.897 95.668Z" fill="#3F3D56"/>
<path d="M355.073 64.6737C361.185 53.0684 376.834 50.3194 386.226 59.4764C388.94 62.1231 390.294 64.9606 388.766 67.7181C383.417 77.3691 371.017 87.7602 371.017 87.7602L355.747 112.308L351.8 113.44L346.903 124.67L336.41 137.007L322.513 144.336L314.382 136.206L316.109 125.754L337.032 97.8759C337.032 97.8759 352.086 78.9345 353.864 66.9684L355.073 64.6737Z" fill="#3F3D56"/>
<path d="M383.84 40.3633C384.224 40.4095 384.608 40.4442 384.989 40.4616C386.176 40.5267 387.349 40.459 388.479 40.2674C391.913 39.7171 395.032 38.0907 397.439 35.7057C399.984 33.1891 401.725 29.8302 402.196 26.0062C403.299 16.98 396.872 8.75779 387.845 7.65489C378.949 6.56143 370.839 12.784 369.544 21.603C369.524 21.7395 369.503 21.8703 369.488 22.0062C368.386 31.0381 374.807 39.2552 383.84 40.3633Z" fill="#FFB6B6"/>
<path d="M365.833 20.9988C368.171 22.155 371.991 18.5199 373.455 20.6114C373.692 20.1594 373.955 19.7223 374.214 19.3089C374.449 18.939 374.784 18.1495 375.173 18.0142C374.681 19.2003 374.79 20.8065 375.3 22.1827C377.606 23.0445 380.625 21.1369 382.76 18.8805C386.112 15.3425 391.585 24.415 390.291 29.1102C391.938 27.099 395.512 28.2333 396.723 30.5329C397.934 32.8268 395.888 34.6647 395.451 37.2234L398.753 36.8041C400.836 34.7752 400.69 31.3563 402.406 29.0048C405.271 25.0694 406.381 21.054 404.227 16.9925C402.317 13.4013 402.138 8.75352 398.633 6.68309C400.164 5.93428 394.718 7.1041 396.173 4.66382C397.634 2.22865 389.845 1.93309 389.337 3.23771C387.111 0.574044 384.867 -1.18217 382.129 0.952193C379.44 3.05206 379.718 5.25926 376.56 5.06146C375.079 4.96965 375.241 7.73249 374.36 8.93704C373.485 10.1352 370.08 10.9043 369.914 10.7761C369.015 10.0726 365.956 16.0615 365.956 16.0615C365.956 16.0615 363.476 19.827 365.833 20.9988Z" fill="#2F2E41"/>
<path d="M159.755 125.529C215.08 125.529 259.93 170.379 259.93 225.704C259.93 281.029 215.08 325.879 159.755 325.879C104.43 325.879 27.862 271.026 59.58 225.704C91.298 180.382 104.43 125.529 159.755 125.529Z" fill="#F2F2F2"/>
<path d="M293.832 130.294C292.934 130.294 292.204 131.025 292.204 131.923V184.047C292.204 184.945 292.934 185.676 293.832 185.676C294.731 185.676 295.461 184.945 295.461 184.047V131.923C295.461 131.025 294.731 130.294 293.832 130.294Z" fill="#3F3D56"/>
<path d="M20.1831 91.2014C19.2847 91.2014 18.5542 91.9319 18.5542 92.8303V105.861C18.5542 106.76 19.2847 107.49 20.1831 107.49C21.0814 107.49 21.8119 106.76 21.8119 105.861V92.8303C21.8119 91.9319 21.0814 91.2014 20.1831 91.2014Z" fill="#3F3D56"/>
<path d="M20.1831 130.294C19.2847 130.294 18.5542 131.025 18.5542 131.923V157.171C18.5542 158.069 19.2847 158.8 20.1831 158.8C21.0814 158.8 21.8119 158.069 21.8119 157.171V131.923C21.8119 131.025 21.0814 130.294 20.1831 130.294Z" fill="#3F3D56"/>
<path d="M20.1831 166.129C19.2847 166.129 18.5542 166.86 18.5542 167.758V193.006C18.5542 193.904 19.2847 194.635 20.1831 194.635C21.0814 194.635 21.8119 193.904 21.8119 193.006V167.758C21.8119 166.86 21.0814 166.129 20.1831 166.129Z" fill="#3F3D56"/>
<path d="M166.271 39.8923C165.372 39.8923 164.642 40.6229 164.642 41.5212V66.7686C164.642 67.667 165.372 68.3975 166.271 68.3975C167.169 68.3975 167.9 67.667 167.9 66.7686V41.5212C167.9 40.6229 167.169 39.8923 166.271 39.8923Z" fill="#3F3D56"/>
<path d="M415.81 352.33C417.492 352.435 418.422 350.345 417.149 349.126L417.023 348.623C417.039 348.583 417.056 348.542 417.073 348.502C418.775 344.445 424.541 344.473 426.228 348.536C427.726 352.143 429.632 355.755 430.102 359.568C430.312 361.252 430.217 362.967 429.844 364.618C433.352 356.954 435.199 348.585 435.199 340.168C435.199 338.054 435.083 335.939 434.846 333.83C434.652 332.104 434.384 330.389 434.036 328.69C432.158 319.506 428.092 310.758 422.227 303.451C419.407 301.91 417.056 299.501 415.636 296.613C415.126 295.571 414.726 294.451 414.536 293.31C414.857 293.352 415.746 288.465 415.504 288.165C415.951 287.486 416.752 287.149 417.24 286.487C419.669 283.194 423.015 283.769 424.762 288.244C428.494 290.127 428.531 293.251 426.241 296.255C424.784 298.167 424.584 300.753 423.305 302.799C423.437 302.967 423.574 303.131 423.705 303.299C426.117 306.392 428.203 309.717 429.961 313.209C429.464 309.328 430.198 304.651 431.448 301.637C432.872 298.202 435.541 295.309 437.891 292.34C440.714 288.773 446.502 290.33 447 294.851C447.004 294.895 447.009 294.939 447.014 294.982C446.665 295.179 446.323 295.388 445.989 295.609C444.083 296.869 444.742 299.823 446.999 300.172L447.05 300.179C446.924 301.437 446.708 302.683 446.393 303.909C449.408 315.568 442.899 319.815 433.605 320.006C433.4 320.111 433.2 320.216 432.995 320.316C433.937 322.967 434.689 325.687 435.246 328.443C435.746 330.879 436.093 333.34 436.288 335.813C436.53 338.932 436.509 342.067 436.246 345.181L436.262 345.071C436.93 341.641 438.792 338.438 441.496 336.218C445.523 332.909 451.214 331.691 455.559 329.031C457.651 327.751 460.332 329.405 459.966 331.83L459.949 331.947C459.302 332.209 458.67 332.515 458.06 332.857C457.711 333.054 457.369 333.263 457.035 333.484C455.13 334.744 455.788 337.697 458.046 338.046L458.097 338.054C458.134 338.059 458.165 338.064 458.202 338.07C457.092 340.705 455.546 343.151 453.61 345.26C451.725 355.438 443.628 356.404 434.967 353.44H434.962C434.015 357.564 432.632 361.594 430.854 365.434H416.178C416.125 365.271 416.078 365.102 416.03 364.939C417.388 365.023 418.755 364.944 420.091 364.697C419.002 363.361 417.914 362.014 416.825 360.678C416.798 360.652 416.777 360.626 416.756 360.599C416.204 359.916 415.646 359.237 415.094 358.553L415.094 358.552C415.059 356.453 415.311 354.36 415.81 352.33Z" fill="#F2F2F2"/>
<path d="M0 365.477C0 366.015 0.431674 366.446 0.969224 366.446H458.917C459.454 366.446 459.886 366.015 459.886 365.477C459.886 364.94 459.454 364.508 458.917 364.508H0.969224C0.431674 364.508 0 364.94 0 365.477Z" fill="#CCCCCC"/>
<path d="M115.956 218.952H59.5801V217.323H115.956C120.853 217.323 124.837 213.338 124.837 208.44V170.323H126.466V208.44C126.466 214.236 121.751 218.952 115.956 218.952Z" fill="#BABAD4"/>
<path d="M223.525 301.58H95.3042V303.209H223.525V301.58Z" fill="#BABAD4"/>
<path d="M304.877 208.06H236.39C232.694 208.06 229.687 205.053 229.687 201.357V133.705C229.687 130.009 232.694 127.003 236.39 127.003H304.877C308.573 127.003 311.58 130.009 311.58 133.705V201.357C311.58 205.053 308.573 208.06 304.877 208.06Z" fill="#E6E6E6"/>
<path d="M249.144 129C239.501 129 231.684 136.817 231.684 146.46V199.922C231.684 203.313 234.434 206.063 237.825 206.063H279.703C296.205 206.063 309.583 192.685 309.583 176.183V135.141C309.583 131.749 306.833 129 303.442 129L249.144 129Z" fill="white"/>
<path d="M288.976 148.66H252.147C251.445 148.66 250.873 148.088 250.873 147.385C250.873 146.683 251.445 146.111 252.147 146.111H288.976C289.679 146.111 290.25 146.683 290.25 147.385C290.25 148.088 289.679 148.66 288.976 148.66Z" fill="#E6E6E6"/>
<path d="M288.976 175.832H252.147C251.445 175.832 250.873 175.26 250.873 174.558C250.873 173.855 251.445 173.284 252.147 173.284H288.976C289.679 173.284 290.25 173.855 290.25 174.558C290.25 175.26 289.679 175.832 288.976 175.832Z" fill="#E6E6E6"/>
<path d="M303.932 162.255H237.192C236.489 162.255 235.917 161.683 235.917 160.981C235.917 160.278 236.489 159.707 237.192 159.707H303.932C304.634 159.707 305.206 160.278 305.206 160.981C305.206 161.683 304.634 162.255 303.932 162.255Z" fill="#E6E6E6"/>
<path d="M304.613 186.88H280.503C279.801 186.88 279.229 186.309 279.229 185.606C279.229 184.904 279.801 184.332 280.503 184.332H304.613C305.316 184.332 305.888 184.903 305.888 185.606C305.888 186.309 305.316 186.88 304.613 186.88Z" fill="#E6E6E6"/>
<path d="M161.022 342.852H106.639C103.704 342.852 101.317 340.465 101.317 337.53V283.81C101.317 280.875 103.704 278.487 106.639 278.487H161.022C163.957 278.487 166.345 280.875 166.345 283.81V337.53C166.345 340.465 163.957 342.852 161.022 342.852Z" fill="#E6E6E6"/>
<path d="M116.767 280.073C109.11 280.073 102.902 286.28 102.902 293.938V336.39C102.902 339.083 105.086 341.266 107.779 341.266H141.033C154.136 341.266 164.759 330.644 164.759 317.54V284.949C164.759 282.256 162.576 280.073 159.883 280.073L116.767 280.073Z" fill="white"/>
<path d="M148.396 295.684H119.151C118.593 295.684 118.139 295.23 118.139 294.672C118.139 294.114 118.593 293.661 119.151 293.661H148.396C148.954 293.661 149.408 294.114 149.408 294.672C149.408 295.23 148.954 295.684 148.396 295.684Z" fill="#E6E6E6"/>
<path d="M148.396 317.261H119.151C118.593 317.261 118.139 316.807 118.139 316.249C118.139 315.691 118.593 315.237 119.151 315.237H148.396C148.954 315.237 149.408 315.691 149.408 316.249C149.408 316.807 148.954 317.261 148.396 317.261Z" fill="#E6E6E6"/>
<path d="M160.272 306.48H107.276C106.718 306.48 106.264 306.026 106.264 305.468C106.264 304.91 106.718 304.456 107.276 304.456H160.272C160.83 304.456 161.284 304.91 161.284 305.468C161.284 306.026 160.83 306.48 160.272 306.48Z" fill="#E6E6E6"/>
<path d="M160.813 326.034H141.668C141.11 326.034 140.656 325.58 140.656 325.022C140.656 324.464 141.11 324.01 141.668 324.01H160.813C161.371 324.01 161.825 324.464 161.825 325.022C161.825 325.58 161.371 326.034 160.813 326.034Z" fill="#E6E6E6"/>
<path d="M123.012 169.912H82.7931C80.6227 169.912 78.8569 168.146 78.8569 165.975V126.247C78.8569 124.077 80.6227 122.311 82.7931 122.311H123.012C125.182 122.311 126.948 124.077 126.948 126.247V165.975C126.948 168.146 125.182 169.912 123.012 169.912Z" fill="#E6E6E6"/>
<path d="M90.2832 123.484C84.6204 123.484 80.0298 128.075 80.0298 133.737V165.133C80.0298 167.124 81.6444 168.739 83.6361 168.739H108.229C117.92 168.739 125.775 160.883 125.775 151.192V127.09C125.775 125.099 124.161 123.484 122.169 123.484L90.2832 123.484Z" fill="white"/>
<path d="M113.675 135.029H92.0467C91.6341 135.029 91.2983 134.693 91.2983 134.281C91.2983 133.868 91.6341 133.532 92.0467 133.532H113.675C114.087 133.532 114.423 133.868 114.423 134.281C114.423 134.693 114.087 135.029 113.675 135.029Z" fill="#E6E6E6"/>
<path d="M113.675 150.986H92.0467C91.6341 150.986 91.2983 150.65 91.2983 150.238C91.2983 149.825 91.6341 149.49 92.0467 149.49H113.675C114.087 149.49 114.423 149.825 114.423 150.238C114.423 150.65 114.087 150.986 113.675 150.986Z" fill="#E6E6E6"/>
<path d="M122.457 143.013H83.264C82.8514 143.013 82.5156 142.677 82.5156 142.264C82.5156 141.852 82.8514 141.516 83.264 141.516H122.457C122.87 141.516 123.205 141.852 123.205 142.264C123.205 142.677 122.87 143.013 122.457 143.013Z" fill="#E6E6E6"/>
<path d="M122.857 157.474H108.699C108.286 157.474 107.95 157.138 107.95 156.726C107.95 156.313 108.286 155.978 108.699 155.978H122.857C123.27 155.978 123.605 156.313 123.605 156.726C123.605 157.138 123.27 157.474 122.857 157.474Z" fill="#E6E6E6"/>
<path d="M240.384 220.003C244.882 220.003 248.528 216.357 248.528 211.859C248.528 207.361 244.882 203.714 240.384 203.714C235.886 203.714 232.24 207.361 232.24 211.859C232.24 216.357 235.886 220.003 240.384 220.003Z" fill="#BABAD4"/>
<path d="M125.549 178.467C130.047 178.467 133.693 174.821 133.693 170.323C133.693 165.825 130.047 162.178 125.549 162.178C121.051 162.178 117.405 165.825 117.405 170.323C117.405 174.821 121.051 178.467 125.549 178.467Z" fill="#BABAD4"/>
<path d="M164.642 290.044C169.14 290.044 172.786 286.398 172.786 281.9C172.786 277.402 169.14 273.756 164.642 273.756C160.144 273.756 156.498 277.402 156.498 281.9C156.498 286.398 160.144 290.044 164.642 290.044Z" fill="#BABAD4"/>
<path d="M182.234 64.2203C187.84 64.2203 192.385 59.7715 192.385 54.2837C192.385 48.7958 187.84 44.347 182.234 44.347C176.629 44.347 172.084 48.7958 172.084 54.2837C172.084 59.7715 176.629 64.2203 182.234 64.2203Z" fill="#F2F2F2"/>
<path d="M263.607 50.8843H208.971C207.096 50.8843 205.571 49.3593 205.571 47.485C205.571 45.6106 207.096 44.0856 208.971 44.0856H263.607C265.481 44.0856 267.006 45.6106 267.006 47.485C267.006 49.3593 265.481 50.8843 263.607 50.8843Z" fill="#F2F2F2"/>
<path d="M306.245 62.3899H208.971C207.096 62.3899 205.571 60.8649 205.571 58.9906C205.571 57.1162 207.096 55.5912 208.971 55.5912H306.245C308.119 55.5912 309.644 57.1162 309.644 58.9906C309.644 60.8649 308.119 62.3899 306.245 62.3899Z" fill="#F2F2F2"/>
<path d="M35.3132 105.982C38.9413 105.982 41.8824 103.103 41.8824 99.5515C41.8824 95.9998 38.9413 93.1206 35.3132 93.1206C31.6851 93.1206 28.7439 95.9998 28.7439 99.5515C28.7439 103.103 31.6851 105.982 35.3132 105.982Z" fill="#F2F2F2"/>
<path d="M87.976 97.3515H52.6163C51.4032 97.3515 50.4163 96.3645 50.4163 95.1514C50.4163 93.9384 51.4032 92.9514 52.6163 92.9514H87.976C89.1891 92.9514 90.1761 93.9384 90.1761 95.1514C90.1761 96.3645 89.1891 97.3515 87.976 97.3515Z" fill="#F2F2F2"/>
<path d="M115.571 104.798H52.6163C51.4032 104.798 50.4163 103.811 50.4163 102.598C50.4163 101.385 51.4032 100.398 52.6163 100.398H115.571C116.784 100.398 117.771 101.385 117.771 102.598C117.771 103.811 116.784 104.798 115.571 104.798Z" fill="#F2F2F2"/>
<path d="M232.406 334.838C236.034 334.838 238.975 331.959 238.975 328.407C238.975 324.855 236.034 321.976 232.406 321.976C228.778 321.976 225.836 324.855 225.836 328.407C225.836 331.959 228.778 334.838 232.406 334.838Z" fill="#F2F2F2"/>
<path d="M285.069 326.207H249.709C248.496 326.207 247.509 325.22 247.509 324.007C247.509 322.794 248.496 321.807 249.709 321.807H285.069C286.282 321.807 287.269 322.794 287.269 324.007C287.269 325.22 286.282 326.207 285.069 326.207Z" fill="#F2F2F2"/>
<path d="M312.663 333.653H249.709C248.496 333.653 247.509 332.666 247.509 331.453C247.509 330.24 248.496 329.253 249.709 329.253H312.663C313.876 329.253 314.863 330.24 314.863 331.453C314.863 332.666 313.876 333.653 312.663 333.653Z" fill="#F2F2F2"/>
<path d="M153.443 127.027H151.814V204.398H153.443V127.027Z" fill="#E6E6E6"/>
<path d="M152.629 209.285C155.328 209.285 157.515 207.097 157.515 204.399C157.515 201.7 155.328 199.512 152.629 199.512C149.93 199.512 147.742 201.7 147.742 204.399C147.742 207.097 149.93 209.285 152.629 209.285Z" fill="#E6E6E6"/>
<path d="M226.742 265.481C229.441 265.481 231.629 263.293 231.629 260.594C231.629 257.896 229.441 255.708 226.742 255.708C224.044 255.708 221.856 257.896 221.856 260.594C221.856 263.293 224.044 265.481 226.742 265.481Z" fill="#E6E6E6"/>
<path d="M94.8041 198.698C97.5029 198.698 99.6907 196.51 99.6907 193.811C99.6907 191.112 97.5029 188.924 94.8041 188.924C92.1053 188.924 89.9175 191.112 89.9175 193.811C89.9175 196.51 92.1053 198.698 94.8041 198.698Z" fill="#E6E6E6"/>
<path d="M92.9983 193.818L66.2744 194.627L66.3237 196.256L93.0476 195.447L92.9983 193.818Z" fill="#E6E6E6"/>
<path d="M266.495 279.302H225.973V260.594H227.602V277.673H266.495V279.302Z" fill="#E6E6E6"/>
<path d="M92.7985 252.055C95.4973 252.055 97.6851 249.867 97.6851 247.169C97.6851 244.47 95.4973 242.282 92.7985 242.282C90.0997 242.282 87.9119 244.47 87.9119 247.169C87.9119 249.867 90.0997 252.055 92.7985 252.055Z" fill="#E6E6E6"/>
<path d="M132.069 265.876H91.5464V247.168H93.1753V264.247H132.069V265.876Z" fill="#E6E6E6"/>
<path d="M256.062 228.575H61.4268V230.204H256.062V228.575Z" fill="#E6E6E6"/>
</g>
<defs>
<clipPath id="clip0_12_152">
<rect width="460" height="366.447" fill="white"/>
</clipPath>
</defs>
</svg>
