<svg width="460" height="357" viewBox="0 0 460 357" fill="none" xmlns="http://www.w3.org/2000/svg">
<g clip-path="url(#clip0_12_120)">
<path d="M445.897 0H43.379C39.6401 0.0045019 36.0557 1.49176 33.4119 4.13554C30.7681 6.77932 29.2809 10.3638 29.2764 14.1026V259.373C29.2809 263.112 30.7681 266.696 33.4119 269.34C36.0557 271.984 39.6401 273.471 43.379 273.475H445.897C449.636 273.471 453.221 271.984 455.865 269.34C458.508 266.696 459.996 263.112 460 259.373V14.1026C459.996 10.3638 458.508 6.77932 455.865 4.13554C453.221 1.49176 449.636 0.00450354 445.897 0ZM458.757 259.373C458.757 261.061 458.424 262.734 457.778 264.294C457.132 265.854 456.185 267.272 454.991 268.466C453.796 269.66 452.379 270.607 450.819 271.253C449.258 271.9 447.586 272.232 445.897 272.232H43.379C39.9684 272.232 36.6975 270.877 34.2859 268.466C31.8743 266.054 30.5194 262.783 30.5194 259.373V98.0009C30.5194 85.2944 33.0221 72.7125 37.8847 60.9733C42.7472 49.2341 49.8743 38.5676 58.8591 29.5828C67.8439 20.598 78.5104 13.4708 90.2496 8.60832C101.989 3.74578 114.571 1.24307 127.277 1.24307H445.897C447.586 1.24307 449.258 1.57569 450.819 2.22195C452.379 2.8682 453.796 3.81543 454.991 5.00955C456.185 6.20367 457.132 7.62129 457.778 9.18149C458.424 10.7417 458.757 12.4139 458.757 14.1026V259.373Z" fill="#3F3D56"/>
<path d="M421.974 208.669H237.608C235.694 208.666 233.859 207.905 232.506 206.552C231.153 205.198 230.392 203.364 230.389 201.45V141.574C230.392 139.66 231.153 137.825 232.506 136.472C233.859 135.119 235.694 134.358 237.608 134.355H421.974C423.888 134.358 425.723 135.119 427.076 136.472C428.429 137.825 429.19 139.66 429.193 141.574V201.45C429.19 203.364 428.429 205.198 427.076 206.552C425.723 207.905 423.888 208.666 421.974 208.669Z" fill="#E6E6E6"/>
<path d="M134.504 39.5964C137.47 39.5964 139.875 37.138 139.875 34.1055C139.875 31.0729 137.47 28.6145 134.504 28.6145C131.537 28.6145 129.132 31.0729 129.132 34.1055C129.132 37.138 131.537 39.5964 134.504 39.5964Z" fill="#3F3D56"/>
<path d="M115.948 39.5964C118.915 39.5964 121.319 37.138 121.319 34.1055C121.319 31.0729 118.915 28.6145 115.948 28.6145C112.982 28.6145 110.577 31.0729 110.577 34.1055C110.577 37.138 112.982 39.5964 115.948 39.5964Z" fill="#3F3D56"/>
<path d="M97.393 39.5964C100.359 39.5964 102.764 37.138 102.764 34.1055C102.764 31.0729 100.359 28.6145 97.393 28.6145C94.4265 28.6145 92.0217 31.0729 92.0217 34.1055C92.0217 37.138 94.4265 39.5964 97.393 39.5964Z" fill="#3F3D56"/>
<path d="M310.006 90.1902H234.884C233.645 90.1902 232.456 89.6978 231.579 88.8212C230.703 87.9447 230.21 86.7559 230.21 85.5163C230.21 84.2766 230.703 83.0878 231.579 82.2113C232.456 81.3347 233.645 80.8423 234.884 80.8423H310.006C311.246 80.8423 312.435 81.3347 313.311 82.2113C314.188 83.0878 314.68 84.2766 314.68 85.5163C314.68 86.7559 314.188 87.9447 313.311 88.8212C312.435 89.6978 311.246 90.1902 310.006 90.1902Z" fill="#E6E6E6"/>
<path d="M368.632 106.01H234.884C233.645 106.01 232.456 105.517 231.579 104.641C230.703 103.764 230.21 102.575 230.21 101.336C230.21 100.096 230.703 98.9074 231.579 98.0308C232.456 97.1543 233.645 96.6619 234.884 96.6619H368.632C369.871 96.6619 371.06 97.1543 371.937 98.0308C372.813 98.9074 373.306 100.096 373.306 101.336C373.306 102.575 372.813 103.764 371.937 104.641C371.06 105.517 369.871 106.01 368.632 106.01Z" fill="#E6E6E6"/>
<path d="M100.883 349.972L107.154 349.971L110.136 325.784L100.882 325.785L100.883 349.972Z" fill="#FFB6B6"/>
<path d="M100.662 356.514L119.945 356.513V356.269C119.945 354.279 119.154 352.37 117.747 350.962C116.339 349.555 114.43 348.764 112.44 348.764L108.917 346.092L102.345 348.764L100.662 348.764L100.662 356.514Z" fill="#2F2E41"/>
<path d="M64.6345 349.972L70.9052 349.971L73.888 325.784L64.6333 325.785L64.6345 349.972Z" fill="#FFB6B6"/>
<path d="M64.4136 356.514L83.6967 356.513V356.269C83.6966 354.279 82.9058 352.37 81.4982 350.962C80.0907 349.555 78.1817 348.764 76.1912 348.764L72.6684 346.092L66.0966 348.764L64.4133 348.764L64.4136 356.514Z" fill="#2F2E41"/>
<path d="M143.122 189.38L121.757 169.344L127.544 159.65L148.614 183.746C149.865 183.62 151.124 183.882 152.22 184.497C153.316 185.111 154.197 186.047 154.743 187.18C155.289 188.312 155.473 189.584 155.27 190.824C155.068 192.065 154.489 193.213 153.612 194.113C152.734 195.012 151.601 195.62 150.367 195.854C149.132 196.088 147.855 195.936 146.709 195.419C145.564 194.903 144.605 194.046 143.963 192.965C143.322 191.885 143.028 190.633 143.122 189.38Z" fill="#FFB6B6"/>
<path d="M58.4995 218.55C58.4995 218.55 55.8472 242.421 61.5939 264.966L59.4295 275.864L64.2462 338.347H75.9381L84.1387 235.348L99.4471 338.347H111.727L110.22 281.764L115.535 227.391L113.314 215.014L58.4995 218.55Z" fill="#2F2E41"/>
<path d="M90.8083 125.55H64.7039L60.3137 136.712L61.373 224.96C61.373 224.96 113.094 224.96 116.63 221.423L105.579 182.965L101.6 133.896L90.8083 125.55Z" fill="#BABAD4"/>
<path d="M105.136 133.454L123.703 153.347L130.333 157.767L132.102 163.514L124.587 176.334L116.188 173.239L113.536 163.514L97.9501 150.773L96.2949 130.36L105.136 133.454Z" fill="#2F2E41"/>
<path d="M88.3748 126.182L91.4296 139.224L95.6324 185.838L101.379 221.202H117.958L108.01 182.744L104.031 133.234L90.7695 125.277L88.3748 126.182Z" fill="#2F2E41"/>
<path d="M67.083 126.182L71.7613 141.19L79.2763 190.701L67.7828 226.065L56.6238 226.239L53.72 215.268L60.2679 187.164L51.4265 133.234L64.6882 125.277L67.083 126.182Z" fill="#2F2E41"/>
<path d="M76.7422 121.13C85.481 121.13 92.5652 114.046 92.5652 105.307C92.5652 96.5683 85.481 89.4841 76.7422 89.4841C68.0034 89.4841 60.9192 96.5683 60.9192 105.307C60.9192 114.046 68.0034 121.13 76.7422 121.13Z" fill="#FFB6B6"/>
<path d="M67.6138 113.14C67.6138 113.14 66.8538 114.293 68.3211 119.184L61.5939 113.783L60.858 107.852C60.858 107.852 57.4342 95.6239 69.173 89.7545C69.173 89.7545 79.4443 84.3743 89.2266 92.2001C89.2266 92.2001 93.1395 92.6892 92.6504 93.1783C92.1613 93.6674 89.7157 95.1348 92.1613 94.6457C94.6068 94.1566 96.0742 91.711 96.0742 93.1783C96.0742 94.6457 91.6722 98.0695 91.6722 98.0695C91.6722 98.0695 93.3841 102.716 81.6453 96.3576C80.3897 99.4965 77.9709 102.03 74.8931 103.429L75.2698 103.796L72.3522 110.053C72.3522 110.053 69.3257 106.048 67.6138 113.14Z" fill="#2F2E41"/>
<path d="M68.8557 236.611L122.017 116.744C122.57 115.5 123.594 114.527 124.864 114.037C126.134 113.548 127.547 113.582 128.792 114.132L167.721 131.397C168.964 131.95 169.938 132.974 170.427 134.244C170.917 135.514 170.883 136.927 170.332 138.172L117.171 258.039C116.618 259.283 115.594 260.256 114.324 260.746C113.054 261.235 111.641 261.201 110.396 260.651L71.4675 243.386C70.2239 242.833 69.2504 241.809 68.7608 240.539C68.2712 239.268 68.3053 237.856 68.8557 236.611Z" fill="white"/>
<path d="M68.8557 236.611L122.017 116.744C122.57 115.5 123.594 114.527 124.864 114.037C126.134 113.548 127.547 113.582 128.792 114.132L167.721 131.397C168.964 131.95 169.938 132.974 170.427 134.244C170.917 135.514 170.883 136.927 170.332 138.172L117.171 258.039C116.618 259.283 115.594 260.256 114.324 260.746C113.054 261.235 111.641 261.201 110.396 260.651L71.4675 243.386C70.2239 242.833 69.2504 241.809 68.7608 240.539C68.2712 239.268 68.3053 237.856 68.8557 236.611ZM169.506 137.806C169.96 136.78 169.988 135.616 169.585 134.569C169.181 133.523 168.379 132.679 167.354 132.223L128.425 114.958C127.4 114.504 126.236 114.476 125.189 114.88C124.143 115.283 123.299 116.085 122.843 117.11L69.6816 236.977C69.228 238.003 69.1999 239.167 69.6034 240.214C70.0068 241.26 70.809 242.104 71.8338 242.56L110.763 259.825C111.788 260.279 112.952 260.307 113.999 259.903C115.045 259.5 115.889 258.698 116.345 257.673L169.506 137.806Z" fill="#3F3D56"/>
<path d="M126.966 187.598C137.953 187.598 146.859 178.692 146.859 167.706C146.859 156.72 137.953 147.813 126.966 147.813C115.98 147.813 107.074 156.72 107.074 167.706C107.074 178.692 115.98 187.598 126.966 187.598Z" fill="#CCCCCC"/>
<path d="M117.288 209.42C128.275 209.42 137.181 200.514 137.181 189.527C137.181 178.541 128.275 169.635 117.288 169.635C106.302 169.635 97.3958 178.541 97.3958 189.527C97.3958 200.514 106.302 209.42 117.288 209.42Z" fill="#3F3D56"/>
<path d="M99.5457 229.533C97.1577 228.474 95.0017 226.955 93.2008 225.062C91.3998 223.17 89.9893 220.942 89.0496 218.504C88.1099 216.067 87.6595 213.468 87.7241 210.857C87.7887 208.245 88.3671 205.672 89.4262 203.284C90.4852 200.896 92.0043 198.74 93.8966 196.939C95.7889 195.138 98.0174 193.727 100.455 192.788C102.892 191.848 105.491 191.398 108.103 191.462C110.714 191.527 113.287 192.105 115.675 193.164C125.718 197.618 136.731 220.463 125.795 219.413C113.271 218.211 109.589 233.987 99.5457 229.533Z" fill="#BABAD4"/>
<path d="M72.7896 217.732L57.2454 179.002L69.6761 181.488L80.0501 214.7C81.2499 215.074 82.3055 215.808 83.0737 216.802C83.8418 217.797 84.2853 219.004 84.344 220.259C84.4027 221.515 84.0736 222.758 83.4016 223.819C82.7295 224.881 81.7469 225.711 80.5873 226.195C79.4276 226.679 78.147 226.795 76.9194 226.526C75.6917 226.258 74.5764 225.618 73.7248 224.694C72.8733 223.77 72.3268 222.606 72.1595 221.36C71.9921 220.115 72.2121 218.848 72.7896 217.732Z" fill="#FFB6B6"/>
<path d="M47.6207 142.682C46.7158 152.665 48.5899 161.431 51.9511 169.545L52.3828 176.763L55.8383 181.683L70.5731 183.607L73.2786 175.075L67.2223 167.017L66.7131 146.893L51.6025 133.069L47.6207 142.682Z" fill="#2F2E41"/>
<path d="M33.7238 346.184C33.4349 346.197 33.1489 346.122 32.9045 345.967C32.6602 345.812 32.4693 345.586 32.3577 345.319C32.2461 345.053 32.2193 344.758 32.2808 344.475C32.3423 344.193 32.4892 343.936 32.7015 343.74L32.7982 343.355C32.7854 343.325 32.7726 343.294 32.7598 343.263C32.4687 342.576 31.981 341.99 31.358 341.578C30.7349 341.167 30.0042 340.949 29.2577 340.952C28.5112 340.955 27.7821 341.178 27.1621 341.594C26.5421 342.01 26.0588 342.599 25.7729 343.289C24.6301 346.041 23.1752 348.798 22.817 351.708C22.6592 352.995 22.7257 354.299 23.0137 355.562C20.3297 349.707 18.9359 343.344 18.927 336.903C18.9264 335.287 19.0162 333.672 19.1959 332.066C19.3445 330.749 19.5506 329.442 19.8142 328.144C21.2528 321.101 24.3414 314.5 28.8265 308.883C30.9973 307.698 32.7529 305.877 33.8566 303.664C34.2565 302.868 34.5391 302.019 34.6956 301.143C34.4507 301.175 33.7723 297.445 33.957 297.217C33.6157 296.699 33.0049 296.441 32.6322 295.936C30.7786 293.423 28.2248 293.862 26.8916 297.277C24.0436 298.714 24.016 301.098 25.7635 303.391C26.8753 304.849 27.0281 306.823 28.0036 308.385C27.9032 308.513 27.7988 308.638 27.6985 308.766C25.8639 311.125 24.2649 313.658 22.9245 316.329C23.2504 313.337 22.8614 310.31 21.7893 307.498C20.7027 304.876 18.6661 302.669 16.8727 300.403C16.3983 299.794 15.7541 299.34 15.0216 299.097C14.289 298.854 13.5009 298.834 12.757 299.039C12.013 299.244 11.3466 299.665 10.8418 300.249C10.3371 300.833 10.0168 301.553 9.92142 302.319C9.91774 302.353 9.91416 302.386 9.91066 302.419C10.177 302.57 10.4378 302.729 10.6929 302.898C11.0135 303.112 11.2618 303.418 11.4055 303.776C11.5491 304.133 11.5814 304.526 11.498 304.903C11.4146 305.279 11.2195 305.621 10.9382 305.885C10.6569 306.148 10.3025 306.321 9.92153 306.38L9.88252 306.386C9.97741 307.346 10.1452 308.297 10.3843 309.232C8.08351 318.13 13.0508 321.37 20.1433 321.516C20.2999 321.596 20.4525 321.676 20.609 321.753C19.2623 325.569 18.4175 329.545 18.096 333.579C17.914 335.959 17.9247 338.35 18.1281 340.729L18.1161 340.645C17.6022 338 16.1913 335.613 14.1217 333.888C11.0478 331.363 6.70504 330.433 3.38889 328.404C3.03646 328.177 2.62667 328.057 2.20785 328.056C1.78903 328.055 1.37866 328.173 1.02513 328.398C0.671596 328.622 0.389655 328.943 0.212561 329.323C0.035466 329.703 -0.0293963 330.125 0.0256241 330.54L0.039186 330.629C0.533532 330.83 1.01485 331.062 1.48035 331.323C1.74673 331.473 2.00749 331.633 2.26263 331.802C2.58315 332.016 2.83151 332.322 2.97516 332.679C3.11882 333.037 3.15107 333.43 3.06769 333.806C2.98431 334.183 2.78918 334.525 2.50789 334.789C2.22659 335.052 1.87224 335.225 1.49127 335.283L1.45222 335.289C1.42413 335.293 1.40001 335.297 1.37197 335.301C2.21662 337.318 3.40212 339.174 4.87653 340.789C6.31516 348.556 12.4941 349.293 19.1036 347.031H19.1076C19.8328 350.183 20.8836 353.25 22.2429 356.184H33.4431C33.4833 356.06 33.5194 355.931 33.5555 355.807C32.5188 355.872 31.478 355.81 30.4564 355.622C31.2874 354.603 32.1184 353.575 32.9493 352.555C32.9679 352.536 32.9853 352.516 33.0016 352.495C33.4231 351.973 33.8486 351.455 34.2701 350.934L34.2703 350.933C34.2928 349.333 34.1088 347.737 33.7238 346.184Z" fill="#F2F2F2"/>
<path d="M158.995 356.218C158.995 356.315 158.976 356.411 158.939 356.501C158.902 356.591 158.848 356.673 158.779 356.741C158.71 356.81 158.629 356.864 158.539 356.902C158.449 356.939 158.353 356.958 158.255 356.957H0.826785C0.630624 356.957 0.442497 356.879 0.30379 356.741C0.165083 356.602 0.0871582 356.414 0.0871582 356.218C0.0871582 356.021 0.165083 355.833 0.30379 355.695C0.442497 355.556 0.630624 355.478 0.826785 355.478H158.255C158.353 355.478 158.449 355.497 158.539 355.534C158.629 355.571 158.71 355.625 158.779 355.694C158.848 355.763 158.902 355.844 158.939 355.934C158.976 356.024 158.995 356.12 158.995 356.218Z" fill="#CCCCCC"/>
</g>
<defs>
<clipPath id="clip0_12_120">
<rect width="460" height="356.957" fill="white"/>
</clipPath>
</defs>
</svg>
