<svg width="700" height="568" viewBox="0 0 700 568" fill="none" xmlns="http://www.w3.org/2000/svg">
<g clip-path="url(#clip0_12_347)">
<path d="M558.828 103.416C555.191 143.481 544.832 185.727 528.585 226.49C508.493 276.898 481.044 321.297 449.202 354.887L447.435 353.347C479.122 319.918 506.447 275.715 526.455 225.515C544.537 180.151 555.292 132.942 557.571 89.014L559.829 89.392C559.59 94.0314 559.256 98.7059 558.828 103.416Z" fill="#F2F2F2"/>
<path d="M573.31 336.107C528.586 407.26 474.327 458.098 420.526 479.257L419.437 477.262C472.866 456.249 526.808 405.671 571.327 334.844L573.31 336.107Z" fill="#F2F2F2"/>
<path d="M557.742 153.298C554.106 193.364 543.746 235.61 527.499 276.373C507.408 326.781 479.958 371.18 448.116 404.77L446.349 403.229C478.037 369.801 505.362 325.597 525.37 275.398C543.451 230.033 554.206 182.825 556.486 138.897L558.744 139.275C558.504 143.914 558.17 148.589 557.742 153.298Z" fill="#F2F2F2"/>
<path d="M55.6606 256.158H26.3164C25.6895 256.159 25.0703 256.019 24.5055 255.747C23.9407 255.475 23.4448 255.078 23.0551 254.587C22.67 254.109 22.3984 253.549 22.2605 252.95C22.1226 252.352 22.1221 251.73 22.259 251.131C25.0537 238.799 24.8782 225.98 21.7467 213.73C21.5487 212.923 21.5966 212.076 21.8843 211.297C22.1719 210.517 22.6862 209.842 23.361 209.358C38.4498 198.506 50.3328 198.821 58.68 210.295C59.0563 210.818 59.3063 211.422 59.4103 212.057C61.6406 225.466 61.764 239.14 59.7761 252.586C59.638 253.578 59.1449 254.487 58.3882 255.144C57.6316 255.8 56.6626 256.161 55.6606 256.158Z" fill="#E6E6E6"/>
<path d="M46.5632 226.772H36.4687C35.9105 226.772 35.3751 226.55 34.9804 226.156C34.5857 225.761 34.364 225.226 34.364 224.668C34.364 224.109 34.5857 223.574 34.9804 223.179C35.3751 222.785 35.9105 222.563 36.4687 222.563H46.5632C47.1206 222.564 47.6548 222.786 48.0486 223.181C48.4423 223.575 48.6635 224.11 48.6635 224.668C48.6635 225.225 48.4423 225.76 48.0486 226.154C47.6548 226.549 47.1206 226.771 46.5632 226.772Z" fill="white"/>
<path d="M46.5632 234.154H36.4687C35.9105 234.154 35.3751 233.932 34.9804 233.537C34.5857 233.142 34.364 232.607 34.364 232.049C34.364 231.491 34.5857 230.955 34.9804 230.561C35.3751 230.166 35.9105 229.944 36.4687 229.944H46.5632C47.1206 229.945 47.6548 230.168 48.0486 230.562C48.4423 230.957 48.6635 231.491 48.6635 232.049C48.6635 232.606 48.4423 233.141 48.0486 233.536C47.6548 233.93 47.1206 234.152 46.5632 234.154Z" fill="white"/>
<path d="M46.5632 241.535H36.4687C35.9105 241.535 35.3751 241.313 34.9804 240.918C34.5857 240.524 34.364 239.988 34.364 239.43C34.364 238.872 34.5857 238.337 34.9804 237.942C35.3751 237.547 35.9105 237.326 36.4687 237.326H46.5632C47.1206 237.327 47.6548 237.549 48.0486 237.944C48.4423 238.338 48.6635 238.873 48.6635 239.43C48.6635 239.988 48.4423 240.522 48.0486 240.917C47.6548 241.311 47.1206 241.534 46.5632 241.535Z" fill="white"/>
<path d="M588.962 387.177H559.618C558.991 387.178 558.372 387.038 557.807 386.765C557.242 386.493 556.746 386.097 556.357 385.606C555.972 385.127 555.7 384.568 555.562 383.969C555.424 383.371 555.424 382.749 555.56 382.15C558.355 369.818 558.18 356.999 555.048 344.749C554.85 343.942 554.898 343.095 555.186 342.315C555.473 341.536 555.988 340.861 556.662 340.377C571.751 329.525 583.634 329.839 591.982 341.314C592.358 341.837 592.608 342.44 592.712 343.076C594.942 356.484 595.066 370.159 593.078 383.605C592.939 384.597 592.446 385.506 591.69 386.163C590.933 386.819 589.964 387.18 588.962 387.177Z" fill="#E6E6E6"/>
<path d="M579.865 357.791H569.77C569.213 357.79 568.679 357.568 568.285 357.173C567.891 356.778 567.67 356.244 567.67 355.686C567.67 355.129 567.891 354.594 568.285 354.2C568.679 353.805 569.213 353.583 569.77 353.582H579.865C580.423 353.582 580.958 353.803 581.353 354.198C581.748 354.593 581.969 355.128 581.969 355.686C581.969 356.244 581.748 356.78 581.353 357.175C580.958 357.569 580.423 357.791 579.865 357.791Z" fill="white"/>
<path d="M579.865 365.172H569.77C569.213 365.171 568.679 364.949 568.285 364.554C567.891 364.16 567.67 363.625 567.67 363.068C567.67 362.51 567.891 361.975 568.285 361.581C568.679 361.186 569.213 360.964 569.77 360.963H579.865C580.423 360.963 580.958 361.185 581.353 361.579C581.748 361.974 581.969 362.509 581.969 363.068C581.969 363.626 581.748 364.161 581.353 364.556C580.958 364.951 580.423 365.172 579.865 365.172Z" fill="white"/>
<path d="M579.865 372.554H569.77C569.213 372.553 568.679 372.33 568.285 371.936C567.891 371.541 567.67 371.006 567.67 370.449C567.67 369.892 567.891 369.357 568.285 368.962C568.679 368.568 569.213 368.345 569.77 368.344H579.865C580.423 368.344 580.958 368.566 581.353 368.961C581.748 369.355 581.969 369.891 581.969 370.449C581.969 371.007 581.748 371.542 581.353 371.937C580.958 372.332 580.423 372.554 579.865 372.554Z" fill="white"/>
<path d="M700 566.644C700 566.788 699.972 566.931 699.917 567.064C699.862 567.198 699.781 567.319 699.679 567.421C699.577 567.523 699.456 567.604 699.323 567.659C699.189 567.714 699.046 567.742 698.902 567.741H1.09798C0.806775 567.741 0.527512 567.626 0.321602 567.42C0.115692 567.214 0 566.935 0 566.644C0 566.352 0.115692 566.073 0.321602 565.867C0.527512 565.661 0.806775 565.546 1.09798 565.546H698.902C699.046 565.545 699.189 565.573 699.323 565.628C699.456 565.683 699.577 565.764 699.679 565.866C699.781 565.968 699.862 566.089 699.917 566.223C699.972 566.356 700 566.499 700 566.644Z" fill="#CCCCCC"/>
<path d="M184.075 499.418L182.245 473.963C170.257 467.97 156.986 464.994 143.586 465.293C162.438 479.865 160.928 508.989 173.984 528.92C178.103 535.105 183.562 540.284 189.955 544.073C196.349 547.862 203.512 550.164 210.916 550.807L226.605 559.833C228.4 547.972 227.602 535.862 224.266 524.338C220.929 512.814 215.135 502.151 207.281 493.082C202.824 488.038 197.75 483.576 192.178 479.8C188.749 489.646 184.075 499.418 184.075 499.418Z" fill="#F2F2F2"/>
<path d="M515.925 503.108L517.755 477.653C529.743 471.66 543.014 468.685 556.413 468.984C537.562 483.556 539.072 512.679 526.016 532.611C521.896 538.796 516.438 543.975 510.045 547.764C503.651 551.553 496.487 553.854 489.084 554.498L473.395 563.524C471.6 551.662 472.398 539.552 475.734 528.029C479.07 516.505 484.865 505.841 492.719 496.773C497.176 491.729 502.25 487.267 507.821 483.491C511.251 493.337 515.925 503.108 515.925 503.108Z" fill="#F2F2F2"/>
<path d="M341.696 215.851C351.378 215.851 359.227 208.002 359.227 198.32C359.227 188.638 351.378 180.79 341.696 180.79C332.014 180.79 324.165 188.638 324.165 198.32C324.165 208.002 332.014 215.851 341.696 215.851Z" fill="#BABAD4"/>
<path d="M350.695 191.014C350.431 190.762 350.081 190.622 349.716 190.622C349.352 190.622 349.002 190.762 348.738 191.014C345.018 193.981 341.677 197.393 338.79 201.175C338.081 199.804 337.372 198.432 336.663 197.061C335.845 195.478 333.456 196.876 334.273 198.458C335.31 200.464 336.347 202.47 337.384 204.476C337.509 204.681 337.684 204.85 337.893 204.967C338.103 205.085 338.339 205.146 338.579 205.146C338.819 205.146 339.054 205.085 339.264 204.967C339.473 204.85 339.649 204.681 339.774 204.476C342.85 200.143 346.528 196.269 350.695 192.971C350.953 192.711 351.097 192.359 351.097 191.993C351.097 191.626 350.953 191.275 350.695 191.014Z" fill="white"/>
<path d="M263.255 248.031L236.819 206.515L267.431 190.121L275.466 221.795L332.077 252.386C334.312 251.582 336.732 251.445 339.044 251.993C341.355 252.541 343.457 253.749 345.094 255.471C346.73 257.192 347.83 259.353 348.26 261.689C348.69 264.025 348.43 266.436 347.514 268.627C346.597 270.819 345.062 272.696 343.097 274.03C341.132 275.365 338.821 276.098 336.446 276.142C334.071 276.185 331.735 275.537 329.722 274.276C327.709 273.015 326.107 271.195 325.11 269.039L263.255 248.031Z" fill="#A0616A"/>
<path d="M217.505 156.72C209.199 168.916 238.717 213.246 238.717 213.246C240.155 210.146 253.901 244.954 256.204 242.898C262.747 237.054 272.991 220.776 278.685 220.05C281.941 219.635 271.133 196.542 271.133 196.542C271.133 196.542 266.193 182.905 259.49 165.486C257.687 160.526 254.658 156.103 250.685 152.629C246.712 149.155 241.925 146.742 236.769 145.616C236.769 145.616 225.811 144.525 217.505 156.72Z" fill="#3F3D56"/>
<path d="M217.911 554.053L230.466 554.052L236.438 505.626L217.908 505.627L217.911 554.053Z" fill="#A0616A"/>
<path d="M214.708 549.954L218.242 549.954L232.039 544.343L239.433 549.953H239.434C243.613 549.953 247.621 551.614 250.576 554.568C253.531 557.523 255.191 561.531 255.191 565.71V566.222L214.709 566.223L214.708 549.954Z" fill="#2F2E41"/>
<path d="M276.238 554.053L288.793 554.052L294.766 505.626L276.236 505.627L276.238 554.053Z" fill="#A0616A"/>
<path d="M273.036 549.954L276.57 549.954L290.366 544.343L297.761 549.953H297.762C301.941 549.953 305.949 551.614 308.904 554.568C311.858 557.523 313.519 561.531 313.519 565.71V566.222L273.037 566.223L273.036 549.954Z" fill="#2F2E41"/>
<path d="M281.673 289.304L200.01 291.346C184.501 299.769 184.265 318.002 189.347 339.649C189.347 339.649 187.631 352.516 191.062 355.947C194.493 359.378 196.209 359.378 194.493 365.382C192.778 371.387 201.842 381.193 200.741 382.294C199.64 383.395 197.067 389.4 197.067 389.4L205.644 438.292C205.644 438.292 211.649 523.211 213.364 524.926C215.08 526.642 216.795 524.926 215.08 529.215C213.364 533.504 211.649 531.788 213.364 533.504C214.884 535.142 216.316 536.86 217.653 538.65H238.391C238.391 538.65 239.955 530.073 239.955 529.215C239.955 528.357 241.67 523.211 241.67 522.353C241.67 521.495 240.154 519.979 240.154 519.979C239.63 518.235 239.276 516.445 239.097 514.633C239.097 512.917 233.951 446.87 233.951 446.87L244.244 361.093L269.119 445.154C269.119 445.154 269.119 518.922 270.834 520.637C272.55 522.353 272.55 521.495 271.692 524.926C270.834 528.357 267.403 527.499 269.977 530.073C272.55 532.646 273.408 528.357 272.55 532.646L271.692 536.935L297.425 537.303C297.425 537.303 300.856 530.073 299.141 527.499C297.425 524.926 297.528 525.629 299.621 521.417C301.714 517.206 302.572 516.349 301.714 515.491C300.856 514.633 300.856 510.071 300.856 510.071L296.567 427.999C296.567 427.999 295.709 341.365 295.709 338.792C295.645 337.467 295.889 336.146 296.422 334.933V331.44L293.136 319.063L281.673 289.304Z" fill="#2F2E41"/>
<path d="M232.617 119.499C246.63 119.499 257.99 108.139 257.99 94.1261C257.99 80.1129 246.63 68.753 232.617 68.753C218.604 68.753 207.244 80.1129 207.244 94.1261C207.244 108.139 218.604 119.499 232.617 119.499Z" fill="#A0616A"/>
<path d="M245.303 136.269C250.77 139.519 254.04 145.49 255.917 151.566C259.392 162.815 261.484 174.445 262.146 186.2L264.129 221.392L288.683 296.325C267.403 314.332 187.412 300.417 187.412 300.417C187.412 300.417 184.956 299.599 187.412 297.143C189.867 294.688 192.258 296.863 189.802 294.408C187.347 291.952 189.039 294.688 189.858 292.232C190.676 289.777 189.858 291.414 189.039 290.595C188.221 289.777 195.376 282.411 195.376 282.411L188.828 239.398L180.643 152.639C190.465 140.361 210.218 133.124 210.218 133.124L215.322 123.937L240.841 125.979L245.303 136.269Z" fill="#3F3D56"/>
<path d="M253.533 80.6458C255.505 82.1167 256.966 84.169 257.71 86.5138C257.996 82.6819 258.014 78.8346 257.765 75.0001C257.466 72.3056 255.569 71.6995 253.372 70.9972C251.388 70.3627 249.145 69.646 248.541 67.0302C240.565 59.2712 226.681 59.6624 217.179 62.3689C211.951 63.8582 208.942 65.7717 208.673 66.8926L208.617 67.1234L208.405 67.2296C204.374 69.2447 203.59 75.6082 203.642 80.5915C203.74 89.9804 206.982 100.644 208.808 101.51C208.905 101.556 208.929 101.538 208.971 101.503C211.721 99.3055 215.076 101.67 216.55 102.956C217.42 97.1202 220.22 91.7445 224.503 87.6871C228.786 83.6298 234.305 81.1247 240.179 80.5721C242.097 80.3867 244 80.0676 245.874 79.6171C246.825 79.3712 247.802 79.243 248.783 79.2353C250.474 79.2097 252.131 79.7019 253.533 80.6458Z" fill="#2F2E41"/>
<path d="M411.046 309.522L459.854 259.958L472.714 220.317L452.02 211.947C441.769 222.287 431.216 253.942 431.216 253.942L397.903 298.653C397.637 298.752 397.372 298.856 397.11 298.98C395.577 299.704 394.256 300.812 393.275 302.195C392.294 303.579 391.687 305.193 391.512 306.88C391.338 308.567 391.601 310.271 392.277 311.826C392.953 313.382 394.019 314.737 395.371 315.76C396.724 316.783 398.318 317.44 399.999 317.668C401.68 317.895 403.391 317.685 404.967 317.058C406.542 316.431 407.93 315.407 408.995 314.087C410.06 312.767 410.766 311.195 411.046 309.522Z" fill="#FFB8B8"/>
<path d="M446.375 216.481L472.545 224.052L472.642 224.033C482.262 222.165 489.871 206.179 494.56 193.097C496.103 188.783 495.95 184.043 494.132 179.837C492.313 175.631 488.966 172.272 484.766 170.439C481.659 169.108 478.241 168.673 474.9 169.182C471.558 169.692 468.425 171.126 465.856 173.322L452.808 184.558L446.375 216.481Z" fill="#BABAD4"/>
<path d="M423.985 552.581L409.911 552.58L403.216 498.295L423.987 498.296L423.985 552.581Z" fill="#FFB8B8"/>
<path d="M427.575 547.986L423.614 547.985L408.148 541.696L399.858 547.984H399.857C395.173 547.985 390.68 549.846 387.368 553.158C384.055 556.471 382.194 560.963 382.194 565.648V566.222L427.574 566.223L427.575 547.986Z" fill="#2F2E41"/>
<path d="M486.434 552.581L472.359 552.58L465.665 498.295L486.437 498.296L486.434 552.581Z" fill="#FFB8B8"/>
<path d="M490.024 547.986L486.063 547.985L470.597 541.696L462.307 547.984H462.306C457.622 547.985 453.129 549.846 449.817 553.158C446.504 556.471 444.643 560.963 444.643 565.648V566.222L490.023 566.223L490.024 547.986Z" fill="#2F2E41"/>
<path d="M507.894 318.753C507.894 318.753 509.538 338.474 505.429 357.373C501.321 376.272 501.321 429.498 501.321 429.498L492.282 533.217L465.166 530.751L457.771 357.373L431.476 415.714L433.941 423.931L430.658 425.985C430.658 425.985 433.12 442.008 431.476 442.008C429.833 442.008 425.724 444.473 425.724 444.473L429.011 529.108L401.074 528.286L391.213 409.14L401.895 340.939L402.717 327.792L406.415 327.944L408.297 322.451L411.756 313.002L507.894 318.753Z" fill="#2F2E41"/>
<path d="M509.315 322.896L509.461 322.69C517.282 311.74 505.519 285.427 503.745 281.613L511.217 279.188L509.535 264.884L508.738 258.507L514.449 252.796L514.465 252.653L517.752 223.894L522.531 204.792C524.331 197.571 524.178 190.001 522.086 182.859C519.994 175.716 516.039 169.259 510.628 164.151L499.581 153.735L486.156 133.872H464.507L457.084 147.893C449.888 149.556 443.503 153.691 439.041 159.578C434.58 165.465 432.326 172.73 432.67 180.109L434.353 216.882L427.767 262.667L427.763 270.953L420.351 279.19L421.969 287.283L416.329 289.7L413.838 301.323C412.807 302.683 406.004 311.754 406.004 314.234C406.004 314.607 406.279 314.966 406.868 315.366C411.505 318.505 437.131 324.906 448.474 320.367C460.555 315.537 508.581 322.783 509.065 322.857L509.315 322.896Z" fill="#BABAD4"/>
<path d="M472.535 127.459C488.37 127.459 501.207 114.623 501.207 98.7878C501.207 82.953 488.37 70.1164 472.535 70.1164C456.701 70.1164 443.864 82.953 443.864 98.7878C443.864 114.623 456.701 127.459 472.535 127.459Z" fill="#FFB8B8"/>
<path d="M469.789 127.923C474.229 127.878 478.657 127.453 483.025 126.654C487.349 125.658 496.89 118.28 499.491 113.922C501.423 110.684 502.582 105.675 503.215 102.043C504.069 97.2375 503.905 92.3057 502.732 87.5674C501.559 82.8291 499.404 78.39 496.406 74.5375C495.251 72.9236 493.68 71.6519 491.862 70.8571C491.701 70.7989 491.535 70.748 491.368 70.7051C488.732 70.0836 486.341 68.6884 484.504 66.6984C484.147 66.2956 483.761 65.9189 483.351 65.5714C481.289 63.9207 478.866 62.7814 476.279 62.2465C472.101 61.2431 466.124 62.5005 458.515 65.9871C454.692 67.7388 450.449 67.2501 447.179 66.6286C446.996 66.5981 446.808 66.6161 446.633 66.6809C446.459 66.7456 446.305 66.8549 446.186 66.9978C444.836 68.3324 443.031 69.1066 441.133 69.1647C439.972 69.2458 438.794 70.8868 437.374 73.0237C437.052 73.5087 436.676 74.0749 436.403 74.4203L436.348 73.7715L435.71 74.5134C434.706 75.6793 434.013 77.0804 433.696 78.5861C433.379 80.0919 433.448 81.6533 433.897 83.1251C434.346 84.5968 435.161 85.931 436.264 87.0034C437.368 88.0758 438.725 88.8514 440.209 89.2582C441.386 89.5391 442.589 89.6991 443.799 89.7356C444.532 89.7826 445.291 89.8311 446.019 89.9383C448.36 90.3549 450.552 91.3713 452.383 92.8882C454.213 94.405 455.619 96.3706 456.462 98.593C456.662 99.1066 456.976 99.5675 457.382 99.9402C457.788 100.313 458.274 100.587 458.802 100.742C459.331 100.898 459.888 100.929 460.431 100.835C460.973 100.74 461.487 100.522 461.932 100.198C462.673 99.5899 463.549 99.1701 464.487 98.9742C465.425 98.7783 466.396 98.8122 467.318 99.0728C468.12 99.4919 468.753 100.174 469.111 101.004C469.545 101.929 470.244 102.703 471.119 103.228C474.105 104.671 474.481 111.394 473.568 117.031C472.688 122.464 470.773 126.427 468.911 126.668C467.478 126.854 467.316 126.96 467.219 127.217L467.132 127.447L467.299 127.656C468.1 127.923 468.949 128.014 469.789 127.923Z" fill="#2F2E41"/>
<path d="M446.001 219.548L432.22 201.988C418.182 205.853 393.273 228.055 393.273 228.055L342.119 250.254C340.412 249.967 338.659 250.135 337.037 250.741C335.415 251.347 333.982 252.37 332.881 253.706C331.779 255.042 331.05 256.644 330.765 258.352C330.48 260.059 330.65 261.812 331.258 263.433C331.866 265.054 332.89 266.487 334.227 267.586C335.565 268.686 337.168 269.413 338.876 269.696C340.584 269.979 342.336 269.807 343.957 269.197C345.577 268.587 347.008 267.561 348.106 266.223L415.117 247.528L446.001 219.548Z" fill="#FFB8B8"/>
<path d="M442.698 223.562L464.444 199.321L465.651 182.145C465.876 178.772 465.153 175.404 463.563 172.42C461.974 169.437 459.582 166.957 456.658 165.262C452.678 162.99 447.984 162.315 443.525 163.372C439.066 164.429 435.175 167.14 432.638 170.956C424.955 182.536 416.689 198.193 420.942 207.02L420.985 207.109L442.698 223.562Z" fill="#BABAD4"/>
<path d="M242.273 314.676L185.756 285.73C181.736 283.671 180.404 278.21 182.788 273.557L219.638 201.604C222.021 196.95 227.231 194.839 231.251 196.898L287.769 225.843C291.789 227.902 293.12 233.363 290.737 238.017L253.886 309.97C251.503 314.624 246.294 316.734 242.273 314.676Z" fill="#E6E6E6"/>
<path d="M232.617 301.369L194.218 281.703C190.453 279.775 189.206 274.661 191.438 270.302L222.053 210.525C224.285 206.167 229.164 204.19 232.929 206.118L279.307 229.87C283.072 231.799 284.319 236.913 282.087 241.271L265.455 273.746C255.513 293.159 249.388 309.958 232.617 301.369Z" fill="white"/>
<path d="M251.602 268.725L217.591 251.306C217.175 251.01 216.88 250.574 216.759 250.078C216.638 249.582 216.699 249.059 216.932 248.604C217.165 248.15 217.553 247.794 218.027 247.602C218.5 247.411 219.026 247.396 219.51 247.56L253.521 264.978C253.936 265.275 254.232 265.711 254.353 266.207C254.474 266.703 254.412 267.226 254.18 267.68C253.947 268.135 253.558 268.49 253.085 268.682C252.612 268.874 252.085 268.889 251.602 268.725Z" fill="#BABAD4"/>
<path d="M221.562 262.683L213.8 258.708C213.384 258.412 213.089 257.976 212.968 257.48C212.847 256.984 212.909 256.461 213.141 256.006C213.374 255.552 213.763 255.196 214.236 255.004C214.709 254.813 215.236 254.797 215.719 254.962L223.481 258.937C223.897 259.233 224.192 259.669 224.313 260.165C224.434 260.661 224.372 261.184 224.14 261.639C223.907 262.093 223.518 262.449 223.045 262.641C222.572 262.832 222.045 262.848 221.562 262.683Z" fill="#BABAD4"/>
<path d="M231.518 277.126L210.009 266.11C209.593 265.814 209.298 265.378 209.177 264.882C209.056 264.386 209.118 263.863 209.35 263.408C209.583 262.954 209.972 262.598 210.445 262.406C210.918 262.215 211.445 262.199 211.928 262.364L233.436 273.379C233.852 273.675 234.148 274.112 234.269 274.608C234.39 275.104 234.328 275.627 234.095 276.081C233.863 276.536 233.474 276.891 233.001 277.083C232.528 277.275 232.001 277.29 231.518 277.126Z" fill="#BABAD4"/>
<path d="M265.061 242.445L231.05 225.027C230.634 224.731 230.339 224.295 230.218 223.798C230.097 223.302 230.158 222.779 230.391 222.325C230.624 221.87 231.012 221.515 231.486 221.323C231.959 221.131 232.485 221.116 232.969 221.28L266.98 238.699C267.395 238.995 267.691 239.431 267.812 239.927C267.933 240.423 267.871 240.947 267.639 241.401C267.406 241.856 267.017 242.211 266.544 242.403C266.071 242.595 265.544 242.61 265.061 242.445Z" fill="#BABAD4"/>
<path d="M235.021 236.404L227.259 232.429C226.843 232.133 226.548 231.697 226.427 231.2C226.306 230.704 226.367 230.181 226.6 229.727C226.833 229.272 227.221 228.917 227.695 228.725C228.168 228.533 228.694 228.518 229.178 228.682L236.939 232.657C237.355 232.954 237.651 233.39 237.772 233.886C237.893 234.382 237.831 234.905 237.598 235.359C237.366 235.814 236.977 236.17 236.504 236.361C236.031 236.553 235.504 236.568 235.021 236.404Z" fill="#BABAD4"/>
<path d="M244.977 250.846L223.468 239.831C223.052 239.535 222.757 239.098 222.636 238.602C222.515 238.106 222.577 237.583 222.809 237.129C223.042 236.674 223.431 236.319 223.904 236.127C224.377 235.935 224.904 235.92 225.387 236.084L246.895 247.1C247.311 247.396 247.607 247.832 247.728 248.328C247.849 248.824 247.787 249.347 247.554 249.802C247.322 250.256 246.933 250.612 246.46 250.804C245.987 250.995 245.46 251.011 244.977 250.846Z" fill="#BABAD4"/>
<path d="M195.44 252.034L182.672 204.5L216.791 198.041L214.956 230.668L259.787 276.829C262.16 276.731 264.51 277.327 266.551 278.543C268.592 279.758 270.235 281.542 271.28 283.675C272.324 285.808 272.726 288.199 272.435 290.557C272.144 292.914 271.174 295.136 269.642 296.952C268.111 298.767 266.084 300.098 263.809 300.781C261.534 301.465 259.11 301.472 256.831 300.801C254.552 300.13 252.518 298.811 250.976 297.004C249.434 295.198 248.451 292.981 248.147 290.625L195.44 252.034Z" fill="#A0616A"/>
<path d="M179.18 151.206C167.599 160.349 182.464 211.49 182.464 211.49C184.765 208.965 187.439 246.293 190.253 245.022C198.248 241.41 212.901 228.953 218.551 229.968C221.782 230.549 218.397 205.277 218.397 205.277C218.397 205.277 217.774 190.787 216.604 172.159C216.371 166.887 214.808 161.759 212.06 157.253C209.312 152.748 205.468 149.01 200.888 146.39C200.888 146.39 190.762 142.063 179.18 151.206Z" fill="#3F3D56"/>
<path d="M371.885 357.537L341.043 342.974C340.384 342.664 339.803 342.209 339.344 341.643C338.886 341.077 338.561 340.414 338.395 339.704C338.228 339.01 338.22 338.287 338.373 337.59C338.525 336.892 338.833 336.238 339.274 335.677C348.208 324.259 354.342 310.907 357.185 296.691C357.4 295.602 357.986 294.622 358.843 293.917C359.7 293.212 360.774 292.826 361.884 292.824C377.613 292.878 389.369 298.621 396.824 309.893C397.217 310.479 397.477 311.144 397.587 311.842C397.696 312.539 397.653 313.252 397.459 313.93C393.142 328.807 386.574 342.936 377.983 355.826C377.345 356.8 376.376 357.51 375.255 357.825C374.134 358.14 372.936 358.038 371.885 357.537Z" fill="#E6E6E6"/>
<path d="M380.957 337.111L357.376 325.976C356.789 325.699 356.336 325.2 356.117 324.589C355.898 323.979 355.931 323.306 356.208 322.719C356.485 322.133 356.984 321.68 357.595 321.461C358.205 321.242 358.878 321.275 359.465 321.552L383.046 332.687C383.337 332.824 383.597 333.017 383.813 333.255C384.029 333.493 384.196 333.771 384.305 334.074C384.413 334.376 384.461 334.697 384.445 335.018C384.43 335.339 384.351 335.653 384.214 335.944C384.077 336.234 383.884 336.495 383.646 336.711C383.408 336.927 383.13 337.094 382.827 337.202C382.525 337.31 382.204 337.358 381.883 337.343C381.562 337.327 381.248 337.248 380.957 337.111Z" fill="white"/>
<path d="M384.621 329.353L361.039 318.218C360.452 317.941 360 317.442 359.781 316.831C359.562 316.221 359.594 315.548 359.871 314.961C360.148 314.375 360.647 313.922 361.258 313.703C361.869 313.484 362.541 313.517 363.128 313.794L386.71 324.929C387.296 325.206 387.749 325.705 387.968 326.316C388.187 326.927 388.154 327.599 387.877 328.186C387.6 328.773 387.101 329.225 386.491 329.444C385.88 329.663 385.207 329.63 384.621 329.353Z" fill="white"/>
<path d="M353.111 85.822L350.915 86.0624C341.128 47.6016 322.157 20.9564 296.052 9.00679C262.866 -6.18328 221.83 4.01713 180.503 37.7294C138.966 71.6138 102.194 125.136 76.9634 188.441L74.8335 187.466C100.175 123.885 137.135 70.104 178.905 36.0312C220.884 1.78623 262.758 -8.48897 296.812 7.09882C323.666 19.3908 343.134 46.613 353.111 85.822Z" fill="#F2F2F2"/>
<path d="M110.934 135.912C105.194 148.005 99.7335 160.534 94.7052 173.149C65.7699 245.747 51.1067 319.888 52.305 387.562L50.0435 387.321C48.844 319.395 63.5494 244.998 92.5753 172.174C97.618 159.523 103.094 146.96 108.851 134.832L110.934 135.912Z" fill="#F2F2F2"/>
<path d="M109.849 185.795C104.108 197.888 98.6481 210.417 93.6198 223.032C64.6845 295.63 50.0213 369.771 51.2195 437.445L48.9581 437.203C47.7586 369.278 62.464 294.881 91.4899 222.057C96.5326 209.406 102.008 196.842 107.765 184.715L109.849 185.795Z" fill="#F2F2F2"/>
<path d="M49.0668 203.937C51.5667 200.179 50.087 194.8 45.7618 191.923C41.4366 189.045 35.9038 189.759 33.4039 193.516C30.904 197.274 32.3837 202.652 36.7088 205.53C41.034 208.408 46.5668 207.694 49.0668 203.937Z" fill="#CCCCCC"/>
<path d="M581.392 339.632C583.892 335.875 582.412 330.496 578.087 327.619C573.762 324.741 568.229 325.454 565.729 329.212C563.229 332.969 564.709 338.348 569.034 341.226C573.359 344.103 578.892 343.39 581.392 339.632Z" fill="#CCCCCC"/>
</g>
<defs>
<clipPath id="clip0_12_347">
<rect width="700" height="567.741" fill="white"/>
</clipPath>
</defs>
</svg>
