<svg width="250" height="250" viewBox="0 0 250 250" fill="none" xmlns="http://www.w3.org/2000/svg">
<g clip-path="url(#clip0_5_21)">
<path d="M132.594 1.93335C119.153 7.33335 119.489 27.8667 133.132 34.3334C135.618 35.4667 139.449 40.7334 145.027 50.5334C156.116 69.8667 156.922 70.6667 167.339 70.6667C178.696 70.6667 178.629 69.8 165.591 47.2667C155.914 30.4667 154.839 27.9333 156.116 25.0667C162.634 10.9333 147.446 -3.99998 132.594 1.93335ZM146.102 12.9333C148.925 16.9333 148.723 20.1334 145.497 23.3334C140.323 28.4667 132.056 25.1334 132.056 17.8667C132.056 10.3334 141.801 6.93335 146.102 12.9333Z" fill="white"/>
<path d="M68.8844 17.6C59.4086 18.5333 58.1989 19.2666 54.7715 26C49.1263 37.0666 48.1854 36.5333 75.9408 37L100.403 37.3333L109.879 52.3333C115.054 60.6 121.371 71 123.925 75.4667C126.546 79.9333 130.242 84.4 132.258 85.4667C137.298 88 150.739 88 151.68 85.4C152.487 83.3333 116.599 22.8666 112.231 19C109.745 16.7333 84.9462 15.9333 68.8844 17.6Z" fill="white"/>
<path d="M169.22 17.5333C167.406 19.4 168.616 22.2 179.099 40.1333C185.013 50.3333 189.852 59.7333 189.852 61.1333C189.852 63.7333 180.712 80.6 169.96 97.8C162.5 109.8 161.895 116.2 167.473 124.6C169.422 127.6 171.841 130 172.782 130C175.067 130 212.702 65.3333 212.702 61.4C212.702 57.5333 193.481 23.8 188.978 19.6667C185.685 16.6667 171.64 15.2 169.22 17.5333Z" fill="white"/>
<path d="M34.4759 44.2C24.664 46.2667 18.75 62.0667 24.4624 71.0667C30.5108 80.6 45.6318 81.8667 52.6882 73.4C54.0995 71.7333 57.6613 71.3333 71.9759 71.3333H89.449L94.4221 66.1333C106.72 53.4 103.696 51 76.6802 52.1333L55.578 53L50.7393 48.8667C48.1183 46.5333 45.2285 44.6667 44.2877 44.6667C43.414 44.6667 41.4651 44.4 39.9866 44.1333C38.5081 43.8667 36.0215 43.9333 34.4759 44.2ZM45.2957 56.0667C48.3871 59.2 47.9167 65.4667 44.4221 67.9333C40.3898 70.7333 37.164 70.5333 33.9382 67.3333C28.5619 62 31.7877 54 39.3146 54C41.3979 54 44.0861 54.9333 45.2957 56.0667Z" fill="white"/>
<path d="M218.414 68C212.433 70.5333 208.535 77.2667 208.871 84.2C209.14 88.8667 207.863 91.8667 200.336 104.4C188.239 124.467 187.567 129.667 195.968 139L199.261 142.667L201.747 139.8C203.091 138.267 208.871 128.8 214.583 118.8C224.328 101.733 225.202 100.667 229.099 100.667C232.056 100.667 234.61 99.2667 238.374 95.4667C252.554 81.4667 236.962 60 218.414 68ZM231.72 77.5333C237.164 82.4 233.535 91.3334 226.142 91.3334C218.616 91.3334 215.39 83.3334 220.766 78C224.059 74.7334 228.427 74.6 231.72 77.5333Z" fill="white"/>
<path d="M30.5779 81.6667C23.1855 82.4 22.1102 83.6667 10.2822 105.067C-1.41131 126.333 -1.81453 128.4 4.23386 137.133C10.5511 146.267 10.0806 146.667 25.1344 119.6C36.2231 99.6667 33.9382 100.667 66.1962 100.667H91.5322L95.6989 97.2C100.403 93.2667 103.831 87.4667 103.831 83.4C103.831 80.7333 51.9489 79.5333 30.5779 81.6667Z" fill="white"/>
<path d="M235.887 112.333C234.476 114.333 229.099 123.333 223.992 132.4C213.105 151.6 216.935 149.867 182.863 150.333L156.452 150.667L152.151 154.667C147.513 158.933 143.548 166.667 144.892 168.733C145.901 170.4 221.505 170.4 224.731 168.733C228.159 166.867 249.462 129 249.462 124.667C249.462 121.067 241.801 108.667 239.583 108.667C238.978 108.667 237.298 110.333 235.887 112.333Z" fill="white"/>
<path d="M37.5 127.667C31.9893 137.4 26.6801 147 25.8065 149C24.664 151.467 23.0511 152.667 20.9006 152.667C10.4839 152.667 3.42746 169.733 10.0135 179.267C20.2957 194.333 42.6076 186.667 41.8011 168.4C41.3979 160.2 41.5995 159.667 49.7312 146.267C60.9543 127.867 61.6936 121.733 53.6963 113C49.1936 108.133 48.0511 109.2 37.5 127.667ZM30.5108 164.067C35.1479 168.733 31.4517 178 25 178C21.035 178 16.4651 173.6 16.4651 169.8C16.4651 163.133 25.7393 159.4 30.5108 164.067Z" fill="white"/>
<path d="M73.3871 124.133C71.8414 126.267 62.9704 141.6 53.4946 158.267C33.8037 193.067 34.4086 188.067 47.5134 210C61.5591 233.667 61.8951 234 73.051 234C85.1478 234 85.1478 233.933 70.9005 210C57.7957 187.933 57.8629 191.333 69.8924 170.2C87.5 139.333 86.6935 141.133 85.6182 135.133C85.0806 131.733 83.0645 127.867 80.3763 124.933L76.0752 120.267L73.3871 124.133Z" fill="white"/>
<path d="M100.134 162.867C95.0269 163.933 96.4382 167.267 114.718 198.2C138.307 238 133.132 234 160.82 234C187.567 233.933 188.911 233.533 194.288 223.667C199.53 213.933 199.664 214 172.446 214C152.352 214 148.253 213.667 146.774 211.933C145.766 210.733 140.927 202.8 135.887 194.267C120.766 168.333 120.229 167.6 116.734 165.267C113.172 162.933 105.175 161.8 100.134 162.867Z" fill="white"/>
<path d="M205.981 174.133C204.167 174.867 201.613 176.4 200.336 177.6C198.387 179.333 194.624 179.667 178.898 179.533L159.879 179.4L153.965 185.267C149.261 189.933 148.051 192 148.454 194.933L148.858 198.667L172.312 199C195.296 199.4 195.901 199.467 199.328 202.733C206.922 209.933 218.145 209.6 225.538 201.933C237.702 189.333 222.446 167.667 205.981 174.133ZM217.473 185.267C219.288 187.067 220.766 189.467 220.766 190.667C220.766 191.8 219.288 194.267 217.473 196.067C215.659 197.867 213.239 199.333 212.03 199.333C210.887 199.333 208.401 197.867 206.586 196.067C204.772 194.267 203.293 191.8 203.293 190.667C203.293 189.467 204.772 187.067 206.586 185.267C208.401 183.467 210.887 182 212.03 182C213.239 182 215.659 183.467 217.473 185.267Z" fill="white"/>
<path d="M74.3951 180.467C71.9086 182.133 72.4462 183.267 85.2822 205.067C93.3467 218.8 95.6989 223.933 94.6236 225C86.3575 233.2 99.0591 250.667 112.5 249.533C130.376 248.067 134.073 220.467 116.935 216.2C114.852 215.667 111.895 211.733 107.191 203.2C97.2446 185.067 92.8763 180.667 83.6693 179.867C79.637 179.467 75.4032 179.8 74.3951 180.467ZM116.129 226.867C119.153 229.6 119.355 235.733 116.532 238.6C113.374 241.667 107.056 241.2 104.57 237.733C98.7231 229.467 108.669 220.133 116.129 226.867Z" fill="white"/>
</g>
<defs>
<clipPath id="clip0_5_21">
<rect width="250" height="250" fill="white"/>
</clipPath>
</defs>
</svg>
