<svg width="460" height="460" viewBox="0 0 460 460" fill="none" xmlns="http://www.w3.org/2000/svg">
<g clip-path="url(#clip0_12_106)">
<path d="M256.852 334.815L267.8 266.394L193.905 236.289L182.958 340.289L256.852 334.815Z" fill="#A0616A"/>
<path d="M331.119 435.932C324.775 439.025 318.31 441.817 311.748 444.294C298.624 449.26 285.077 453.007 271.18 455.509C257.597 457.962 243.652 459.207 229.706 459.207C210.866 459.207 192.135 456.947 174.02 452.475C166.927 450.736 159.773 448.609 152.74 446.131C152.002 445.865 151.253 445.6 150.516 445.333C141.791 442.168 133.211 438.458 124.957 434.265C123.845 433.709 122.733 433.14 121.622 432.536C120.389 431.908 119.169 431.243 117.936 430.554C116.365 429.696 114.806 428.802 113.247 427.895C108.027 424.874 102.891 421.611 97.9843 418.216L97.658 417.999C97.368 417.793 97.078 417.6 96.8 417.395C96.9812 416.44 97.1505 415.569 97.3075 414.796C97.9117 411.763 98.3106 410.095 98.3106 410.095L131.398 341.745L140.619 322.7L145.114 320.85L179.072 306.893H262.068L288.256 317.721C288.256 317.721 288.389 318.216 288.655 319.171C291.265 328.536 306.491 381.709 330.117 433.732C330.443 434.457 330.781 435.194 331.119 435.932Z" fill="#BABAD4"/>
<path d="M238.179 288.389C279.796 288.389 313.534 254.651 313.534 213.034C313.534 171.416 279.796 137.678 238.179 137.678C196.561 137.678 162.824 171.416 162.824 213.034C162.824 254.651 196.561 288.389 238.179 288.389Z" fill="#A0616A"/>
<path d="M145.246 320.201L145.116 320.85L122.142 430.083L121.943 431.034L121.623 432.538C120.387 431.907 119.168 431.241 117.94 430.558C116.366 429.694 114.81 428.803 113.245 427.895C108.031 424.877 102.895 421.609 97.9836 418.219L97.655 417.995C97.3697 417.796 97.0757 417.597 96.799 417.398C93.0464 414.778 89.3888 412.046 85.8178 409.227C85.7918 409.21 85.7746 409.192 85.7486 409.166C79.376 404.03 73.237 398.505 67.3659 392.634C63.5787 388.847 59.9385 384.947 56.4539 380.944L56.9813 378.73L57.0332 378.506L57.6903 375.687C63.5354 351.001 83.3103 332.056 108.221 327.283L141.32 320.945L145.246 320.201Z" fill="#BABAD4"/>
<path d="M379.929 403.992C370.177 412.294 359.724 419.811 348.69 426.409C347.615 427.062 346.515 427.702 345.416 428.343C340.727 431.05 335.953 433.575 331.119 435.932C324.775 439.025 318.31 441.817 311.748 444.294L311.24 441.901L285.295 318.53L288.654 319.171L322.322 325.624C347.228 330.397 367.011 349.346 372.847 374.034L379.289 401.309L379.929 403.992Z" fill="#BABAD4"/>
<path d="M324.956 233.177C322.999 240.476 313.15 273.093 287.929 279.956C282.975 281.31 271.156 282.869 274.286 279.956C274.999 279.292 275.688 278.639 276.377 277.998C303.748 252.259 314.914 236.525 309.814 201.6C306.576 179.364 269.694 159.171 248.944 157.165C240.195 156.32 229.029 159.279 221.658 166.906C209.488 179.473 211.494 218.048 204.751 240.706C202.939 246.772 200.51 251.703 197.017 254.687C194.842 256.548 193.452 254.18 192.425 250.301C190.238 242.059 189.67 226.966 186.564 231.231C177.585 243.594 186.141 259.98 188.727 266.301C189.259 267.594 189.803 268.838 190.346 270.023V270.035C190.661 270.711 190.987 271.389 191.301 272.029V272.041C199.929 289.636 210.298 295.932 219.434 306.893C223.023 311.183 226.419 316.173 229.452 322.845C231.531 327.413 233.029 332.005 234.056 336.512C239.289 359.11 233.078 379.642 231.398 385.225C227.881 396.851 221.839 416.826 204.111 428.101C181.851 442.265 161.537 429.781 151.821 443.231C151.7 443.388 151.591 443.545 151.483 443.702C151.12 444.246 150.794 444.79 150.516 445.333C141.791 442.168 133.211 438.457 124.957 434.264C123.845 433.709 122.733 433.14 121.622 432.536C120.389 431.908 119.168 431.243 117.936 430.554C117.887 429.611 117.839 428.669 117.803 427.715C117.09 411.364 118.165 393.394 122.238 375.473C124.848 364.029 127.434 352.681 131.398 341.744C133.984 334.615 137.15 327.654 141.319 320.947C144.655 315.557 148.618 310.325 153.428 305.297C163.99 294.264 173.38 289.66 174.866 278.01C176.993 261.382 159.676 256.38 153.428 231.231C149.162 214.035 144.703 189.25 149.029 172.549C153.114 156.767 156.667 143.075 168.522 129.66C171.374 126.446 194.782 104.089 221.899 100.416C234.395 98.7362 245.537 114.736 260.642 118.18C278.008 122.132 287.953 124.392 297.669 131.824C314.092 144.367 318.721 163.123 323.011 180.549C326.37 194.181 330.721 211.812 324.956 233.177Z" fill="#2F2E41"/>
<path d="M392.634 67.3658C349.194 23.9252 291.434 0 230 0C168.566 0 110.806 23.9252 67.3658 67.3658C23.9252 110.806 0 168.566 0 230C0 286.073 19.9304 339.086 56.4537 380.944C59.9384 384.947 63.5786 388.847 67.3658 392.634C73.2369 398.505 79.3759 404.03 85.7485 409.166C85.7745 409.192 85.7917 409.21 85.8177 409.227C126.552 442.127 176.901 460 230 460C291.434 460 349.194 436.075 392.634 392.634C436.075 349.194 460 291.434 460 230C460 168.566 436.075 110.806 392.634 67.3658ZM379.535 402.327C364.775 415.167 348.346 426.131 330.629 434.864C324.412 437.934 318.04 440.727 311.52 443.226C286.194 452.944 258.707 458.271 230 458.271C202.296 458.271 175.734 453.308 151.151 444.229C141.061 440.51 131.308 436.092 121.943 431.034C120.568 430.29 119.202 429.538 117.845 428.768C110.703 424.722 103.794 420.303 97.162 415.53C82.3417 404.895 68.8444 392.53 56.9812 378.73C22.559 338.748 1.72932 286.765 1.72932 230C1.72932 104.131 104.131 1.72932 230 1.72932C355.869 1.72932 458.271 104.131 458.271 230C458.271 298.723 427.748 360.451 379.535 402.327Z" fill="#3F3D56"/>
</g>
<defs>
<clipPath id="clip0_12_106">
<rect width="460" height="460" fill="white"/>
</clipPath>
</defs>
</svg>
