<svg width="460" height="460" viewBox="0 0 460 460" fill="none" xmlns="http://www.w3.org/2000/svg">
<g clip-path="url(#clip0_12_94)">
<path d="M234.115 300.278C275.35 300.278 308.778 266.851 308.778 225.616C308.778 184.381 275.35 150.953 234.115 150.953C192.88 150.953 159.452 184.381 159.452 225.616C159.452 266.851 192.88 300.278 234.115 300.278Z" fill="#A0616A"/>
<path d="M172.317 316.997L187.881 277.222L268.294 265.117L276.934 353.163L195.656 354.892L172.317 316.997Z" fill="#A0616A"/>
<path d="M309.501 239.391C308.532 243.273 306.573 252.517 303.514 252.562C301.015 252.599 298.623 212.498 301.119 205.866C303.987 198.246 296.451 188.606 290.775 183.658C280.568 174.761 257.911 193.865 234.873 185.211C234.262 184.982 234.384 185.008 227.109 182.105C204.723 173.174 203.547 172.916 202.264 172.789C191.412 171.715 178.168 180.595 172.76 191.422C167.139 202.677 171.836 212.331 166.549 239.56C165.933 242.734 164.966 247.257 163.444 247.324C160.661 247.445 157.944 232.583 157.232 228.69C154.251 212.381 151.377 196.657 157.232 179C157.871 177.074 161.808 169.926 169.655 155.708C180.96 135.225 186.646 124.945 188.289 123.098C200.073 109.846 221.523 97.7575 239.532 102.912C248.634 105.517 247.002 109.705 258.165 113.782C278.06 121.045 295.35 112.162 298.539 118.44C300.228 121.765 295.502 124.507 295.433 130.863C295.315 141.767 309.107 144.918 317.172 155.708C321.508 161.508 328.93 161.57 309.501 239.391Z" fill="#2F2E41"/>
<path d="M401.999 382.708C398.989 386.089 395.868 389.401 392.634 392.635C349.194 436.075 291.434 460 230 460C176.901 460 126.552 442.127 85.8176 409.227C85.7916 409.21 85.7743 409.193 85.7486 409.166C80.3444 404.809 75.1132 400.174 70.0635 395.28C70.1585 394.52 70.2623 393.767 70.3746 393.023C71.0837 388.008 71.8707 383.227 72.7525 378.826C79.9725 342.752 174.973 304.88 177.446 303.894C177.48 303.885 177.498 303.877 177.498 303.877C177.498 303.877 189.724 348.943 242.114 348.364C277.798 347.975 270.881 303.877 270.881 303.877C270.881 303.877 271.313 303.963 272.126 304.136C282.433 306.324 353.993 322.043 382.224 343.496C390.827 350.032 397.001 363.954 401.436 380.555C401.627 381.264 401.808 381.99 401.999 382.708Z" fill="#BABAD4"/>
<path d="M392.634 67.3659C349.194 23.926 291.434 0 230 0C168.566 0 110.807 23.926 67.3657 67.3659C23.9253 110.807 0 168.566 0 230C0 286.074 19.9305 339.086 56.4538 380.944C59.9384 384.948 63.5786 388.847 67.3657 392.635C68.2563 393.525 69.1556 394.416 70.0636 395.28C75.1133 400.175 80.3445 404.809 85.7486 409.166C85.7744 409.193 85.7917 409.21 85.8177 409.227C126.552 442.127 176.901 460 230 460C291.434 460 349.194 436.075 392.634 392.635C395.868 389.401 398.989 386.089 401.999 382.708C439.499 340.582 460 286.869 460 230C460 168.566 436.075 110.807 392.634 67.3659ZM401.436 380.555C394.632 388.294 387.316 395.574 379.535 402.328C364.775 415.168 348.346 426.131 330.629 434.865C324.412 437.934 318.04 440.727 311.52 443.226C286.194 452.945 258.707 458.271 230 458.271C202.296 458.271 175.734 453.308 151.152 444.229C141.061 440.51 131.308 436.093 121.943 431.034C120.568 430.291 119.202 429.538 117.845 428.769C110.703 424.722 103.794 420.304 97.1621 415.531C87.6595 408.717 78.7015 401.186 70.3747 393.023C65.7056 388.449 61.2441 383.685 56.9813 378.731C22.5591 338.749 1.72932 286.765 1.72932 230C1.72932 104.132 104.131 1.72932 230 1.72932C355.869 1.72932 458.271 104.132 458.271 230C458.271 287.638 436.801 340.348 401.436 380.555Z" fill="#3F3D56"/>
</g>
<defs>
<clipPath id="clip0_12_94">
<rect width="460" height="460" fill="white"/>
</clipPath>
</defs>
</svg>
